<svg xmlns="http://www.w3.org/2000/svg" viewBox="0 0 400 400" width="32" height="32"><g fill-rule="evenodd"><path d="M69.06 159.6c-.166.77-.113 7.07.118 14 .23 6.93.419 26.109.42 42.62.002 22.814.117 30.135.482 30.5.36.36 5.329.48 19.9.48 22.207-.001 26.655-.284 30.907-1.967 1.602-.634 3.722-1.284 4.712-1.445 1.008-.163 2.019-.606 2.3-1.008.276-.394 1.446-1.028 2.601-1.41 1.155-.382 2.336-1.028 2.624-1.435.289-.407 1.09-1.032 1.781-1.389 1.78-.921 5.34-4.437 6.525-6.446.552-.935 1.18-1.7 1.395-1.7.216 0 .606-.495.868-1.1.261-.605.977-1.691 1.591-2.414.614-.723 1.116-1.545 1.116-1.827 0-1.074 1.246-4.648 1.82-5.222.825-.825 1.354-4.009 1.75-10.522.184-3.033.536-6.022.782-6.641.626-1.574.559-7.001-.127-10.195-.316-1.473-.688-3.71-.828-4.971-.139-1.26-.755-3.33-1.369-4.6-.614-1.269-1.346-2.899-1.626-3.621-.838-2.158-.851-1.221-.028 1.914.424 1.615 1.053 3.094 1.398 3.287.421.236.628.927.628 2.093 0 2.398-.799 2.619-9.486 2.619h-6.966l-1.009-1.2c-.556-.66-1.261-1.2-1.567-1.2-.306 0-.679-.495-.829-1.1-.255-1.031-4.153-5.3-4.839-5.3-.172 0-1.021-.612-1.887-1.36-.865-.748-2.303-1.576-3.195-1.839-.892-.263-2.187-.823-2.878-1.245-2.08-1.27-9.1-2.023-17.525-1.881-10.016.17-9.897.072-10.431 8.525-.33 5.227-.376 5.346-1.576 4.051-.602-.65-1.401-1.052-2.093-1.053-1.764-.004-3.834-.702-5.313-1.794-.749-.552-1.741-1.004-2.205-1.004-.464 0-1.554-.515-2.422-1.145-.869-.63-2.119-1.319-2.779-1.532-1.473-.476-1.631-1.503-2.115-13.723-.213-5.375-.428-7.718-.625-6.8m199.463 4.478c-.482.233-.972.672-1.089.976-.126.33.269.198.977-.325 1.602-1.185 1.637-1.388.112-.651m-92.126 5.564c-2.198 2.223-3.997 4.225-3.997 4.447 0 .223-.532 1.012-1.183 1.753-.651.741-1.37 2.041-1.598 2.889-.229.848-.765 1.858-1.193 2.245-.427.387-.975 1.627-1.217 2.755-.242 1.129-.928 3.046-1.524 4.261L164.6 190.2l-.13 10.771c-.135 11.253.09 13.489 1.542 15.335.422.536.874 1.632 1.004 2.435.526 3.227.687 3.721 1.56 4.769.499.599 1.119 1.739 1.378 2.531.258.793.891 1.838 1.407 2.322.515.485 1.256 1.587 1.645 2.45.389.863 1.038 1.674 1.442 1.802.405.129 1.048.763 1.43 1.41.382.647 1.018 1.279 1.413 1.404s.99.755 1.324 1.399c.333.645.856 1.172 1.161 1.172.306 0 1.066.549 1.69 1.221.624.671 1.994 1.596 3.044 2.054 1.051.458 2.058 1.097 2.239 1.42.181.324 1.392.941 2.69 1.372 1.299.432 2.569 1.054 2.824 1.384.256.332 1.951.875 3.8 1.216 1.835.339 4.455.957 5.821 1.375 1.366.417 3.166.759 4 .76.834.001 2.225.199 3.092.44 1.827.507 8.053-.113 11.012-1.097.983-.327 3.185-.86 4.893-1.184 1.837-.349 4.173-1.156 5.718-1.975 1.437-.762 2.852-1.386 3.145-1.386.292 0 .875-.383 1.294-.852.419-.468 1.482-1.165 2.362-1.549 2.011-.876 9.4-7.982 9.4-9.041 0-.425-.72-1.644-1.6-2.709-.88-1.065-1.601-2.142-1.603-2.393-.001-.251-.558-.773-1.238-1.159-.68-.387-1.318-1.017-1.418-1.4-.1-.384-.803-1.104-1.562-1.601-.758-.497-1.379-1.164-1.379-1.484 0-.326-.674-.782-1.543-1.042l-1.543-.462-2.635 2.571c-1.45 1.415-3.321 2.92-4.157 3.346-.837.426-1.702.994-1.922 1.262-.556.677-3.178 1.713-4.333 1.713-.528 0-1.419.362-1.982.804-2.8 2.203-14.449 2.162-16.911-.059-.454-.41-1.264-.749-1.8-.754-1.122-.01-4.369-1.396-4.385-1.871-.006-.176-.726-.761-1.6-1.3-.874-.54-1.59-1.17-1.592-1.4-.001-.231-.558-.737-1.238-1.123-.68-.387-1.327-1.054-1.439-1.482-.112-.428-.65-1.07-1.195-1.427-.546-.358-1.248-1.221-1.562-1.919-.314-.698-.927-1.719-1.363-2.269-2.628-3.316-2.755-19.436-.196-24.922 1.193-2.559 2.626-4.893 3.402-5.542.437-.365.794-.809.794-.986 0-.347 4.041-4.15 4.41-4.15.123 0 .891-.63 1.708-1.4.816-.77 1.825-1.4 2.242-1.4.417 0 1.812-.569 3.099-1.264 3.821-2.064 18.326-2.141 20.57-.109.383.346 1.53.88 2.55 1.187 1.02.307 2.401 1.104 3.068 1.772.668.668 1.426 1.218 1.684 1.223.258.005 1.549 1.013 2.869 2.239 2.113 1.963 3.64 2.958 4.526 2.949.151-.001.702-.631 1.226-1.4.523-.768 1.198-1.397 1.5-1.397.301 0 .548-.191.548-.423 0-.233.615-1.088 1.367-1.9 3.385-3.656 5.443-6.137 6.024-7.26.897-1.733.008-1.512-1.139.283-.527.825-1.976 2.4-3.22 3.5-1.244 1.1-2.53 2.495-2.858 3.101-1.538 2.843-5.606 3.584-6.684 1.218-.23-.505-.678-.919-.994-.919-.317 0-1.172-.596-1.9-1.324-.728-.728-2.082-1.574-3.007-1.88-.926-.305-2.074-.862-2.55-1.237-1.067-.839-2.826-1.306-8.239-2.186-4.743-.772-4.61-.769-7.6-.178-1.21.239-3.717.709-5.571 1.044-2.366.428-3.717.901-4.531 1.585-.638.537-1.489.976-1.893.976-.403 0-1.644.72-2.757 1.6-1.114.88-2.194 1.6-2.401 1.6-.207 0-.83.54-1.386 1.2-.555.66-1.17 1.2-1.365 1.2-.496 0-2.096 1.754-2.096 2.297 0 .246-.819.999-1.82 1.675L184.36 188H168v-1.753c0-1.369.162-1.796.739-1.947.722-.189 1.661-2.817 1.661-4.646 0-.436.455-1.333 1.01-1.993.556-.661 1.211-1.8 1.455-2.531.245-.732.865-1.78 1.379-2.33s1.659-1.772 2.545-2.715c.886-.944 1.611-1.893 1.611-2.109 0-.216.44-.594.978-.839.845-.385 1.75-1.537 1.207-1.537-.105 0-1.989 1.819-4.188 4.042m89.303-1.941c-.715.872-1.3 1.894-1.3 2.271 0 .884-1.092 4.278-1.883 5.849-1.006 2-.519 11.178.774 14.579.543 1.43 1.107 3.243 1.253 4.03.151.811.783 1.925 1.461 2.575.657.629 1.195 1.377 1.195 1.661 0 .283.495.832 1.1 1.218.605.386 1.326 1.006 1.601 1.378.276.372 1.132.885 1.903 1.139.771.255 1.57.776 1.775 1.159.204.383 1.148.924 2.096 1.203 2.1.617 4.325 1.665 4.325 2.036 0 .478 1.993 1.201 3.319 1.203 1.772.003 4.131.705 4.878 1.452.358.358 1.853.775 3.513.981 4.24.524 5.121.748 6.89 1.75.88.499 2.291 1.033 3.136 1.186 6.708 1.218 9.733 10.056 5.123 14.971-.692.739-1.259 1.482-1.259 1.652 0 2.107-16.182 1.948-18.716-.185-.616-.518-1.766-1.063-2.555-1.211-.789-.148-2.021-.658-2.738-1.134a155.415 155.415 0 00-2.577-1.664c-2.2-1.383-4.63-3.151-6.252-4.548-1.98-1.705-3.26-1.324-5.358 1.595-.771 1.074-1.544 1.953-1.717 1.953-.173 0-.649.585-1.058 1.3-.746 1.304-1.35 2.024-4.026 4.792-1.779 1.839-1.716 3.979.137 4.631.583.205 1.51.801 2.06 1.325.55.524 1.687 1.302 2.528 1.73.84.428 1.693 1.088 1.897 1.468.203.379 1.005.9 1.782 1.156.777.257 1.904.877 2.503 1.378.6.502 2.132 1.213 3.406 1.582 1.273.368 2.647 1.001 3.052 1.406.505.505 1.849.884 4.284 1.209 1.951.26 4.628.808 5.948 1.217 5.741 1.779 13.526 1.774 17.6-.012.88-.386 2.77-.819 4.2-.962 1.964-.196 3.153-.598 4.86-1.64 1.243-.759 2.455-1.38 2.693-1.38.531 0 2.25-1.496 5.054-4.4 3.987-4.128 4.576-4.901 4.841-6.35.147-.798.793-2.44 1.438-3.65 1.689-3.17 1.594-13.329-.155-16.6-.588-1.1-1.262-2.736-1.497-3.635-.235-.9-1.072-2.34-1.86-3.2a254.093 254.093 0 01-1.703-1.872c-.149-.169-.766-.677-1.371-1.129-.605-.452-1.1-1.079-1.1-1.393 0-.314-.279-.571-.62-.571-.841 0-2.961-1.099-4.18-2.168-.55-.482-1.9-1.102-3-1.379-1.1-.276-2.363-.844-2.807-1.261-.496-.465-2.041-.973-4-1.315-1.756-.306-4.093-1.026-5.193-1.599-1.1-.573-2.892-1.239-3.982-1.48-1.09-.241-2.86-.879-3.933-1.418-1.073-.539-2.208-.98-2.522-.98-.82 0-4.163-1.625-4.163-2.023 0-.184-.648-1.44-1.44-2.791-1.538-2.625-1.547-2.821-.28-6.251 2.041-5.522 7.845-7.203 16.32-4.725 1.76.514 3.92 1.062 4.8 1.218.88.156 2.083.622 2.674 1.036.59.414 1.847 1.026 2.794 1.36.946.334 2.178 1.046 2.738 1.581 2.594 2.486 5.338 2.003 7.55-1.329 1.988-2.995 3.118-4.591 4.16-5.876 1.288-1.591 2.292-3.589 2.25-4.48-.023-.473-.142-.365-.348.315-.388 1.28-1.626 3.257-2.308 3.685-.281.176-.807.894-1.169 1.595-.363.701-1.128 1.759-1.7 2.351l-2.619 2.705c-1.811 1.868-2.298 1.982-3.121.729-.336-.512-1.406-1.139-2.481-1.455-1.04-.305-2.2-.887-2.579-1.293-.379-.407-2.028-1.074-3.665-1.483-1.637-.409-3.589-1.061-4.337-1.449-2.403-1.243-12.296-1.599-14.244-.513-2.524 1.408-4.121 2.744-4.345 3.636-.137.547-.79 1.535-1.45 2.195-1.262 1.263-1.789 5.251-.775 5.877.411.254.765 1.011 1.349 2.885l.28.9H265.29l-.493-4.027c-.871-7.11-.419-13.192 1.145-15.411 1.65-2.341 1.476-2.958-.242-.861m-152.833 8.669c1.686.676 3.36 1.23 3.719 1.23.853 0 3.014 1.122 3.014 1.565 0 .189.585.622 1.3.961 2.396 1.138 6.816 6.694 7.675 9.647.346 1.189.829 2.228 1.073 2.31 2.12.706 2.055 20.214-.073 22.139-.426.386-.775 1.03-.775 1.432 0 1.188-1.246 3.946-1.783 3.946-.272 0-.825.731-1.228 1.624-.403.894-1.102 1.822-1.553 2.064-.451.241-1.152.86-1.557 1.376-.406.515-.908.936-1.118.936-.209 0-1.259.604-2.332 1.343-1.074.738-2.726 1.466-3.672 1.618-.946.151-2.268.601-2.939 1.001-3.354 2-21.227 2.408-23.107.527l-.911-.91-.119-18.398c-.078-12.17.03-19.173.32-20.689.241-1.261.548-4.968.681-8.238l.243-5.945 1.237-.571c2.58-1.189 18.202-.454 21.905 1.032m31.482-.97c.216.44.685 1.16 1.044 1.6l.651.8-.393-.8c-.216-.44-.685-1.16-1.044-1.6l-.651-.8.393.8" fill="#a7cb15"/><path d="M0 200v200h400V0H0v200m219.754-47.612c2.696.284 3.767.574 4.437 1.203.65.611 1.756.929 4.198 1.208 3.143.358 5.211 1.154 5.211 2.004 0 .212.795.586 1.767.83.972.245 2.175.88 2.674 1.411.499.531 1.549 1.14 2.333 1.354.934.255 1.661.806 2.107 1.596.419.74 1.005 1.206 1.519 1.206.507 0 1.104.465 1.513 1.178.372.648.992 1.261 1.378 1.362.386.101 1.019.739 1.406 1.419.386.68.863 1.237 1.059 1.238 2.188.016 1.844 4.81-.523 7.283a84.92 84.92 0 00-1.672 1.8c-.351.396-.918.99-1.26 1.32-1.93 1.863-3.423 3.529-4.03 4.5-.379.605-.926 1.1-1.216 1.1-.29 0-.734.455-.988 1.012-.814 1.787-5.228 2.072-6.165.398-.216-.385-.737-.995-1.159-1.355a51.13 51.13 0 01-1.855-1.709c-.598-.58-1.488-1.175-1.978-1.324-.489-.148-1.241-.716-1.671-1.263-.519-.66-1.668-1.24-3.423-1.726-1.453-.403-3.015-1.07-3.471-1.483-1.143-1.034-12.996-1.14-14.203-.127-1.074.901-2.577 1.473-4.713 1.794-1.331.199-2.053.553-2.49 1.22-.338.516-1.213 1.155-1.944 1.419-.731.265-1.521.903-1.756 1.418-.235.516-.884 1.146-1.443 1.4-.558.255-1.118.873-1.244 1.374-.125.5-.637 1.178-1.136 1.505-.558.365-1.092 1.326-1.385 2.491-.263 1.043-.906 2.405-1.43 3.028-1.302 1.547-1.498 3.371-1.339 12.45l.138 7.827 1.115 1.163c.613.64 1.303 1.846 1.534 2.68.23.834.943 1.958 1.585 2.498.641.54 1.166 1.206 1.166 1.481 0 .275.44.701.979.947.538.245 1.285.912 1.658 1.483.374.57 1.239 1.3 1.922 1.621.682.321 1.828 1.016 2.545 1.544.749.551 2.194 1.082 3.392 1.247 1.148.158 2.789.535 3.646.837 2.051.724 7.068.701 9.623-.043 1.119-.326 3.343-.792 4.941-1.037 2.084-.319 3.015-.649 3.293-1.168.213-.398 1.155-1.098 2.094-1.555.939-.457 3.129-2.185 4.867-3.839 2.878-2.74 4.24-3.593 4.24-2.658 0 .193.573.465 1.274.605 1.406.281 2.726 1.288 2.726 2.08 0 .281.36.625.8.765.44.14 1.266.865 1.836 1.611.569.747 1.36 1.461 1.756 1.587.397.126.945.767 1.217 1.425.273.658.726 1.327 1.006 1.486 1.262.719 3.856 5.291 3.002 5.291-.211 0-.853.802-1.427 1.782-.575.98-1.383 1.889-1.797 2.02-.414.131-.867.602-1.008 1.046-.141.444-.773 1.122-1.405 1.506-.632.384-1.503 1.148-1.935 1.699-.433.55-1.539 1.248-2.458 1.551-.919.304-1.942.967-2.275 1.474-.332.507-.86.922-1.172.922-.572 0-2.554 1.126-2.956 1.679-.314.431-3.122 1.373-5.078 1.703-.925.156-2.11.62-2.631 1.031-2.762 2.172-25.001 2.162-27.766-.013-.531-.418-1.808-.882-2.837-1.032-2.159-.315-4.872-1.305-4.872-1.778 0-.178-.855-.639-1.9-1.024-1.045-.384-2.262-1.021-2.705-1.413-.443-.393-1.647-1.086-2.676-1.541-1.028-.455-1.977-1.165-2.108-1.577-.131-.412-.772-.97-1.424-1.241-.653-.27-1.187-.651-1.187-.846 0-.195-1.329-1.675-2.953-3.289-1.624-1.613-3.074-3.313-3.221-3.776-.147-.463-.606-.95-1.021-1.081-.43-.137-1.054-1.047-1.454-2.121-.386-1.034-1.108-2.301-1.605-2.814-.511-.528-1.115-1.919-1.39-3.2-.267-1.247-.714-2.537-.993-2.868-3.299-3.907-3.081-34.399.246-34.399.215 0 .392-.405.393-.9.004-1.563.796-3.835 1.738-4.988.501-.611 1.226-1.959 1.611-2.993.41-1.101 1.022-1.983 1.475-2.127.426-.135.774-.575.774-.978 0-.886 9.204-10.414 10.06-10.414.333 0 .852-.462 1.154-1.026.321-.6 1.026-1.122 1.697-1.256.631-.126 1.527-.743 1.99-1.37.653-.883 1.281-1.198 2.784-1.397 1.488-.197 2.15-.525 2.84-1.407.81-1.035 1.261-1.194 4.488-1.587 2.463-.299 3.961-.7 4.78-1.278 1.872-1.32 11.347-1.871 18.761-1.091m83.056.027c2.24.273 3.767.687 4.5 1.219.749.543 2.218.93 4.525 1.192 3.136.357 5.365 1.184 5.365 1.992 0 .179.973.527 2.162.774 1.432.297 2.579.848 3.396 1.628.679.649 1.571 1.18 1.982 1.18.412 0 1.416.63 2.233 1.4.816.77 1.625 1.4 1.797 1.4 1.035 0 2.43 2.056 2.43 3.581 0 1.542-1.019 3.219-1.957 3.219-.196 0-.475.472-.619 1.048-.28 1.113-1.12 2.152-1.741 2.152-.206 0-.684.81-1.062 1.801-.378.99-1.007 2.025-1.397 2.3-.39.274-1.092 1.251-1.56 2.17-.479.941-1.247 1.791-1.757 1.945-.499.151-1.362.699-1.918 1.218l-1.011.945-1.151-.99c-.633-.544-1.475-.989-1.87-.989s-1.312-.605-2.038-1.344c-.8-.815-1.894-1.449-2.779-1.611-.803-.146-2.153-.737-3-1.312-4.784-3.248-19.726-2.801-20.29.607-.637 3.853-.132 7.173 1.166 7.666.497.189 1.174.73 1.504 1.201.433.618 1.496 1.053 3.799 1.552 1.758.382 3.711 1.036 4.339 1.455.628.418 2.366 1.075 3.863 1.46 1.496.385 3.155 1.042 3.686 1.46.558.439 1.964.873 3.333 1.027 1.606.182 2.929.638 4.113 1.417.961.632 2.491 1.347 3.4 1.588.91.242 1.888.722 2.174 1.066.286.345 1.182.964 1.991 1.377 1.543.787 5.982 4.949 5.982 5.608 0 .211.249.383.554.383.573 0 1.846 2.276 1.846 3.298 0 .318.353.898.785 1.288 2.482 2.246 2.677 20.391.252 23.312-.504.606-1.026 1.552-1.161 2.102-.483 1.97-7.009 8.956-9.32 9.978-.921.408-2.037 1.103-2.48 1.546-.442.442-1.8 1.011-3.016 1.264-1.216.252-2.627.782-3.136 1.177-2.824 2.196-24.162 2.229-27.716.044-.664-.409-2.378-.947-3.808-1.197-1.43-.25-3.106-.818-3.724-1.263-.619-.445-2.076-1.136-3.24-1.536-1.163-.401-2.584-1.197-3.157-1.771-.574-.573-1.304-1.042-1.623-1.042-.319 0-1.334-.63-2.256-1.4-.922-.77-1.91-1.4-2.196-1.4-.287 0-1.037-.585-1.668-1.3-.63-.715-1.634-1.519-2.23-1.786-2.087-.937-2.047-5.157.065-6.81.676-.529 1.229-1.188 1.229-1.463 0-.276.458-.932 1.018-1.458.56-.526 1.505-1.727 2.1-2.669.595-.942 1.274-1.713 1.508-1.713.235-.001.819-.699 1.298-1.552.535-.95 1.375-1.749 2.174-2.065.716-.284 1.617-.784 2.002-1.112.403-.343.7-.412.7-.162 0 .239.838.852 1.863 1.362 1.024.51 1.942 1.231 2.039 1.601.098.371.783.961 1.523 1.312.741.352 1.578.966 1.861 1.366.283.399 1.234.96 2.114 1.245.88.285 2.164 1.009 2.854 1.609.775.674 1.96 1.196 3.099 1.367 1.104.166 2.353.705 3.114 1.346 1.219 1.026 1.495 1.075 6.809 1.221l5.538.152 1.693-1.77c4.373-4.571 4.867-6.109 2.693-8.384-.66-.691-1.2-1.495-1.2-1.787 0-.292-.495-.848-1.1-1.235-.605-.387-1.28-.917-1.5-1.178-.471-.557-3.158-1.332-4.632-1.335-.568-.001-1.918-.457-3-1.013-1.177-.605-3.218-1.174-5.078-1.414-3.371-.436-4.937-.912-5.917-1.8-.346-.312-1.516-.737-2.601-.943-2.713-.515-4.15-1.109-4.426-1.828-.128-.335-.947-.723-1.819-.862-.938-.15-2.242-.802-3.194-1.598-.885-.739-1.779-1.344-1.988-1.344-.723 0-4.345-3.713-4.345-4.455 0-.41-.231-.745-.514-.745-.61 0-1.665-1.729-2.058-3.376-.155-.646-.622-1.654-1.039-2.24-2.272-3.191-2.265-18.162.01-20.583.485-.517.967-1.688 1.096-2.662.254-1.927 1.123-3.539 1.908-3.539.28 0 .626-.462.768-1.027.142-.565.764-1.317 1.383-1.673.619-.355 1.317-1.153 1.551-1.773.273-.723.715-1.127 1.233-1.127.444 0 1.174-.515 1.623-1.145.538-.755 1.459-1.325 2.711-1.675 1.043-.292 2.264-.958 2.713-1.481.646-.751 1.435-1.027 3.784-1.322 2.086-.262 3.184-.605 3.697-1.156 1.357-1.456 11.077-2.095 18.344-1.206m-183.365 3.635c1.015.672 2.659 1.226 4.57 1.541 2.176.359 3.271.761 4.04 1.483.628.589 1.737 1.082 2.737 1.216 1.202.161 2.053.608 2.985 1.568.717.738 1.567 1.342 1.889 1.342.321 0 1.102.54 1.734 1.2.632.66 1.356 1.2 1.608 1.2.686 0 5.831 5.619 6.417 7.008.28.665.886 1.549 1.346 1.966.46.416 1.091 1.614 1.402 2.661.311 1.047.92 2.258 1.354 2.692.768.768 1.673 3.943 1.673 5.87 0 .526.363 1.573.807 2.325 1.185 2.009 1.76 8.986 1.217 14.778-.232 2.475-.422 5.469-.423 6.653-.001 1.399-.265 2.589-.755 3.4-.415.686-.877 2.327-1.027 3.647-.385 3.391-.946 5.327-1.788 6.169-.399.399-.948 1.651-1.219 2.781-.285 1.188-.863 2.35-1.368 2.753-.481.383-1.098 1.243-1.372 1.91-.273.667-1.121 1.915-1.885 2.773-.763.858-1.387 1.792-1.387 2.077 0 .285-.495.838-1.1 1.228-.605.39-1.508 1.189-2.007 1.775-.499.586-1.714 1.539-2.7 2.117-.986.578-1.793 1.195-1.793 1.371 0 .175-.713.533-1.586.794-.872.262-1.841.841-2.155 1.289-.364.52-1.485 1.024-3.114 1.399-1.4.322-2.998.915-3.553 1.318-1.36.99-2.006 1.16-6.192 1.63-1.98.222-4.631.766-5.89 1.21-2.178.766-3.263.806-22.138.806-21.639 0-21.49.015-22.538-2.285-.737-1.617-.587-88.43.155-89.715.317-.55.753-1.386.968-1.858.608-1.334.097-1.31 25.473-1.224l24.029.082 1.586 1.05M92.5 176.239c-.365.166-.501 1.753-.504 5.894-.003 3.862-.194 6.292-.6 7.631-.49 1.613-.595 5.111-.589 19.6L90.814 227l.949.9c1.175 1.114 14.488 1.399 16.557.355.594-.3 2.298-.665 3.787-.812 2.781-.274 4.693-.897 4.693-1.529 0-.197.99-.811 2.2-1.365 1.21-.554 2.2-1.16 2.2-1.346 0-.186.635-.73 1.411-1.21.784-.484 1.671-1.493 1.995-2.268.321-.768 1.025-1.921 1.564-2.563.574-.681 1.097-1.955 1.259-3.064.152-1.044.746-2.798 1.318-3.898 1.583-3.04 1.559-11.307-.043-14.647-.593-1.237-1.198-3.037-1.346-4-.316-2.07-.735-2.999-1.962-4.353-.498-.55-1.02-1.378-1.159-1.839-.139-.462-.702-1.044-1.251-1.294-.549-.251-1.196-.889-1.437-1.42-.248-.543-.902-1.059-1.495-1.178-.58-.118-1.594-.736-2.254-1.375-.95-.919-1.814-1.26-4.147-1.639-1.621-.263-4.051-.858-5.4-1.323-2.424-.836-14.389-1.514-15.753-.893" fill="#242424"/><path d="M207.888 154.245c-.159.159-1.234.427-2.388.596-8.623 1.259-10.556 1.658-11.299 2.329-.441.398-1.701 1.051-2.801 1.451-1.1.401-2.471 1.113-3.047 1.583-.576.47-1.656 1.107-2.4 1.415-.744.308-1.774 1.06-2.289 1.67-.514.611-1.197 1.111-1.518 1.111-.321 0-.888.531-1.26 1.179-.372.649-1.084 1.365-1.581 1.592-.498.226-.905.589-.905.805 0 .216-.725 1.165-1.611 2.109-.886.943-2.031 2.165-2.545 2.715-.514.55-1.134 1.598-1.379 2.33-.244.731-.899 1.87-1.455 2.531-.555.66-1.01 1.557-1.01 1.993 0 1.829-.939 4.457-1.661 4.646-.577.151-.739.578-.739 1.947V188h16.36l1.82-1.228c1.001-.676 1.82-1.455 1.82-1.731 0-.53 1.642-2.241 2.152-2.241.165 0 .754-.54 1.309-1.2.556-.66 1.179-1.2 1.386-1.2.207 0 1.287-.72 2.401-1.6 1.113-.88 2.354-1.6 2.757-1.6.404 0 1.255-.439 1.893-.976.814-.684 2.165-1.157 4.531-1.585 1.854-.335 4.361-.805 5.571-1.044 2.99-.591 2.857-.594 7.6.178 5.413.88 7.172 1.347 8.239 2.186.476.375 1.624.932 2.55 1.237.925.306 2.279 1.152 3.007 1.88.728.728 1.583 1.324 1.9 1.324.316 0 .766.419 1 .931 1.023 2.245 4.76 1.73 6.422-.887.364-.574 1.927-2.331 3.472-3.904 1.546-1.573 3.302-3.442 3.904-4.153l1.095-1.292-1.595-1.595c-.877-.877-1.594-1.753-1.594-1.947 0-.194-.225-.354-.5-.354-.275-.001-.85-.524-1.279-1.164-.428-.639-1.373-1.445-2.1-1.792-.726-.347-1.321-.812-1.321-1.034 0-.223-.8-.781-1.778-1.241-.978-.459-2.205-1.225-2.726-1.702-.522-.476-1.927-1.2-3.122-1.609-1.196-.409-2.444-.972-2.774-1.253-1.96-1.665-21.293-4.378-22.512-3.159m82.512.172c-.55.182-3.24.748-5.977 1.257-3.163.588-5.204 1.17-5.6 1.594-.343.368-1.658 1.056-2.923 1.529-1.265.473-2.3.992-2.3 1.152 0 .16-.805.8-1.789 1.422-.984.623-1.886 1.436-2.004 1.808-.118.372-.753 1.074-1.411 1.561-.658.486-1.196 1.143-1.196 1.46 0 .317-.575 1.393-1.278 2.39-1.543 2.189-1.991 8.316-1.125 15.383l.493 4.027h19.564l-.28-.9c-.584-1.874-.938-2.631-1.349-2.885-1.014-.626-.487-4.614.775-5.877.66-.66 1.313-1.648 1.45-2.195.224-.892 1.821-2.228 4.345-3.636 1.948-1.086 11.841-.73 14.244.513.748.388 2.7 1.04 4.337 1.449 1.637.409 3.286 1.076 3.665 1.483.379.406 1.539.988 2.579 1.293 1.075.316 2.145.943 2.481 1.455.823 1.253 1.31 1.139 3.121-.729l2.619-2.705c.572-.592 1.337-1.65 1.7-2.351.362-.701.894-1.419 1.181-1.595 2.362-1.448 2.944-5.601.978-6.973-.715-.499-1.449-1.149-1.63-1.445-.182-.296-1.346-.988-2.587-1.537-1.241-.548-2.538-1.253-2.884-1.566-.345-.312-1.761-.921-3.147-1.352-1.386-.431-2.819-1.044-3.186-1.362-.367-.318-3.093-.959-6.066-1.427-2.97-.467-6.029-1.032-6.797-1.254-1.642-.475-8.559-.466-10.003.013m-220.162 2.087c-.728.55-.749 1.003-.455 9.936.413 12.604.501 13.194 2.017 13.683.66.213 1.91.902 2.779 1.532.868.63 1.958 1.145 2.422 1.145.464 0 1.456.452 2.205 1.004 1.479 1.092 3.549 1.79 5.313 1.794.692.001 1.491.403 2.093 1.053 1.2 1.295 1.246 1.176 1.576-4.051.534-8.453.415-8.355 10.431-8.525 8.425-.142 15.445.611 17.525 1.881.691.422 1.986.982 2.878 1.245.892.263 2.33 1.091 3.195 1.839.866.748 1.715 1.36 1.887 1.36.686 0 4.584 4.269 4.839 5.3.15.605.523 1.1.829 1.1.306 0 1.011.54 1.567 1.2l1.009 1.2h6.966c8.687 0 9.486-.221 9.486-2.619 0-1.17-.207-1.857-.631-2.095-.35-.195-.991-1.74-1.44-3.468-.444-1.713-1.33-3.939-1.969-4.945-.638-1.006-1.16-2.013-1.16-2.237 0-.491-.508-1.055-4.845-5.385-1.845-1.843-3.918-3.591-4.607-3.886-.688-.294-1.768-.967-2.4-1.495-.631-.529-1.598-1.086-2.148-1.238-1.571-.437-4.155-1.575-4.653-2.049-.249-.238-2.319-.764-4.6-1.17-2.281-.406-4.957-1.102-5.947-1.547-2.402-1.081-42.796-1.594-44.162-.562" fill="#dbe99d"/><path d="M67.563 157.444c-.722.871-1.064 88.456-.352 90.18.99 2.395.811 2.376 22.561 2.376 18.875 0 19.96-.04 22.138-.806 1.259-.444 3.91-.988 5.89-1.21 4.186-.47 4.832-.64 6.192-1.63.555-.403 2.153-.996 3.553-1.318 1.629-.375 2.75-.879 3.114-1.399.314-.448 1.283-1.027 2.155-1.289.873-.261 1.586-.619 1.586-.794 0-.176.807-.793 1.793-1.371.986-.578 2.201-1.531 2.7-2.117.499-.586 1.402-1.385 2.007-1.775.605-.39 1.1-.943 1.1-1.228 0-.285.624-1.219 1.387-2.077.764-.858 1.612-2.106 1.885-2.773.274-.667.891-1.527 1.372-1.91.505-.403 1.083-1.565 1.368-2.753.271-1.13.82-2.382 1.219-2.781.842-.842 1.403-2.778 1.788-6.169.15-1.32.635-2.997 1.077-3.728 1.219-2.014 1.206-16.42-.017-18.741-.444-.842-1.036-2.421-1.317-3.509-.761-2.952-.926-1.461-.195 1.755.735 3.229.833 8.669.185 10.297-.246.619-.598 3.608-.782 6.641-.396 6.513-.925 9.697-1.75 10.522-.574.574-1.82 4.148-1.82 5.222 0 .282-.502 1.104-1.116 1.827-.614.723-1.33 1.809-1.591 2.414-.262.605-.652 1.1-.868 1.1-.215 0-.843.765-1.395 1.7-1.185 2.009-4.745 5.525-6.525 6.446-.691.357-1.492.982-1.781 1.389-.288.407-1.469 1.053-2.624 1.435-1.155.382-2.325 1.016-2.601 1.41-.281.402-1.292.845-2.3 1.008-.99.161-3.11.811-4.712 1.445-4.253 1.684-8.7 1.966-30.938 1.967-15.079 0-19.542-.112-19.855-.5-.261-.323-.507-14.421-.697-39.9-.402-54.118-.294-51.211-1.834-49.356m195.091 13.684c-.124.369-.636 1.18-1.139 1.801-1.835 2.265-1.488 17.1.464 19.842.422.593.894 1.607 1.049 2.253.393 1.647 1.448 3.376 2.058 3.376.283 0 .514.335.514.745 0 .742 3.622 4.455 4.345 4.455.209 0 1.103.605 1.988 1.344.952.796 2.256 1.448 3.194 1.598.872.139 1.691.527 1.819.862.276.719 1.713 1.313 4.426 1.828 1.085.206 2.255.631 2.601.943.98.888 2.546 1.364 5.917 1.8 1.86.24 3.901.809 5.078 1.414 1.082.556 2.432 1.012 3 1.013 1.474.003 4.161.778 4.632 1.335.22.261.895.791 1.5 1.178.605.387 1.1.943 1.1 1.235 0 .292.54 1.096 1.2 1.787 2.174 2.275 1.68 3.813-2.693 8.384l-1.693 1.77-5.538-.152c-5.314-.146-5.59-.195-6.809-1.221-.761-.641-2.01-1.18-3.114-1.346-1.139-.171-2.324-.693-3.099-1.367-.69-.6-1.974-1.324-2.854-1.609-.88-.285-1.831-.846-2.114-1.245-.283-.4-1.12-1.014-1.861-1.366-.74-.351-1.425-.941-1.523-1.312-.097-.37-1.015-1.091-2.039-1.601-1.025-.51-1.863-1.123-1.863-1.362 0-.25-.297-.181-.7.162-.385.328-1.286.828-2.002 1.112-.799.316-1.639 1.115-2.174 2.065-.479.853-1.063 1.551-1.298 1.552-.234 0-.913.771-1.508 1.713-.595.942-1.54 2.143-2.1 2.669-.56.526-1.018 1.182-1.018 1.458 0 .275-.553.934-1.229 1.463-2.112 1.653-2.152 5.873-.065 6.81.596.267 1.6 1.071 2.23 1.786.631.715 1.381 1.3 1.668 1.3.286 0 1.274.63 2.196 1.4.922.77 1.937 1.4 2.256 1.4.319 0 1.049.469 1.623 1.042.573.574 1.994 1.37 3.157 1.771 1.164.4 2.621 1.091 3.24 1.536.618.445 2.294 1.013 3.724 1.263 1.43.25 3.144.788 3.808 1.197 3.554 2.185 24.892 2.152 27.716-.044.509-.395 1.92-.925 3.136-1.177 1.216-.253 2.574-.822 3.016-1.264.443-.443 1.559-1.138 2.48-1.546 2.311-1.022 8.837-8.008 9.32-9.978.135-.55.657-1.496 1.161-2.102 2.425-2.921 2.23-21.066-.252-23.312-.432-.39-.785-.97-.785-1.288 0-1.022-1.273-3.298-1.846-3.298-.305 0-.554-.172-.554-.383 0-.659-4.439-4.821-5.982-5.608-.809-.413-1.705-1.032-1.991-1.377-.286-.344-1.264-.824-2.174-1.066-.909-.241-2.439-.956-3.4-1.588-1.184-.779-2.507-1.235-4.113-1.417-1.302-.147-2.766-.577-3.254-.956-1.357-1.055-3.327-1.514-7.486-1.746-3.959-.221-4.178.144-.564.943 1.08.238 2.864.903 3.964 1.476s3.437 1.293 5.193 1.599c1.959.342 3.504.85 4 1.315.444.417 1.707.985 2.807 1.261 1.1.277 2.45.897 3 1.379 1.219 1.069 3.339 2.168 4.18 2.168.341 0 .62.257.62.571 0 .314.495.941 1.1 1.393.605.452 1.222.96 1.371 1.129.148.169.915 1.011 1.703 1.872.788.86 1.625 2.3 1.86 3.2.235.899.909 2.535 1.497 3.635 1.749 3.271 1.844 13.43.155 16.6-.645 1.21-1.291 2.852-1.438 3.65-.265 1.449-.854 2.222-4.841 6.35-2.804 2.904-4.523 4.4-5.054 4.4-.238 0-1.45.621-2.693 1.38-1.707 1.042-2.896 1.444-4.86 1.64-1.43.143-3.32.577-4.2.963-4.068 1.785-11.853 1.79-17.6.01-1.32-.409-3.997-.956-5.948-1.216-2.435-.325-3.779-.704-4.284-1.209-.405-.405-1.779-1.038-3.052-1.406-1.274-.369-2.806-1.08-3.406-1.582-.599-.501-1.726-1.121-2.503-1.378-.777-.256-1.579-.777-1.782-1.156-.204-.38-1.057-1.04-1.897-1.468-.841-.428-1.978-1.206-2.528-1.73s-1.477-1.12-2.06-1.325c-1.853-.652-1.916-2.792-.137-4.631 2.676-2.768 3.28-3.488 4.026-4.792.409-.715.885-1.3 1.058-1.3.173 0 .946-.879 1.717-1.953 2.098-2.919 3.378-3.3 5.358-1.595 1.622 1.397 4.052 3.165 6.252 4.548.7.44 1.86 1.189 2.577 1.664.717.476 1.949.986 2.738 1.134.789.148 1.939.693 2.555 1.211 2.534 2.133 18.716 2.292 18.716.185 0-.17.567-.913 1.259-1.652 4.61-4.915 1.585-13.753-5.123-14.971-.845-.153-2.256-.687-3.136-1.186-1.769-1.002-2.65-1.226-6.89-1.75-1.66-.206-3.155-.623-3.513-.981-.747-.747-3.106-1.449-4.878-1.452-1.326-.002-3.319-.725-3.319-1.203 0-.371-2.225-1.419-4.325-2.036-.948-.279-1.892-.82-2.096-1.203-.205-.383-1.004-.904-1.775-1.159-.771-.254-1.627-.767-1.903-1.139-.275-.372-.996-.992-1.601-1.378-.605-.386-1.1-.935-1.1-1.218 0-.284-.538-1.032-1.195-1.661-.678-.65-1.31-1.764-1.461-2.575-.146-.787-.71-2.6-1.253-4.03-1.292-3.398-1.78-12.577-.775-14.579.715-1.424 1.484-3.723 1.484-4.438 0-.791-1.097-.999-1.346-.255m27.546 2.464l-2.399 1.152 1.192.453c.772.294 1.688.331 2.599.106 1.884-.465 11.929.232 13.83.96.428.164 1.381.707 2.118 1.207.737.5 1.997 1.029 2.8 1.175.885.162 1.979.796 2.779 1.611.726.739 1.643 1.344 2.038 1.344.395 0 1.237.445 1.87.989l1.151.99 1.111-1.064c.611-.586 1.111-1.355 1.111-1.71s.225-.877.5-1.161c.275-.283-.264-.122-1.199.36-1.961 1.011-3.502.72-5.295-.999-.56-.535-1.792-1.247-2.738-1.581-.947-.334-2.204-.946-2.794-1.36-.591-.414-1.794-.88-2.674-1.036-.88-.156-3.04-.705-4.8-1.221-5.266-1.542-8.315-1.601-11.2-.215m-120.125 1.624c-.481.448-.875 1.037-.875 1.308 0 .272-.532 1.139-1.182 1.928-1.241 1.505-2.402 4.321-2.412 5.848-.003.495-.182.9-.397.9-3.327 0-3.545 30.492-.246 34.399.279.331.726 1.621.993 2.868.275 1.281.879 2.672 1.39 3.2.497.513 1.219 1.78 1.605 2.814.4 1.074 1.024 1.984 1.454 2.121.415.131.874.618 1.021 1.081.147.463 1.597 2.163 3.221 3.776 1.624 1.614 2.953 3.094 2.953 3.289 0 .195.534.576 1.187.846.652.271 1.293.829 1.424 1.241.131.412 1.08 1.122 2.108 1.577 1.029.455 2.233 1.148 2.676 1.541.443.392 1.66 1.029 2.705 1.413 1.045.385 1.9.846 1.9 1.024 0 .473 2.713 1.463 4.872 1.778 1.029.15 2.306.614 2.837 1.032 2.765 2.175 25.004 2.185 27.766.013.521-.411 1.706-.875 2.631-1.031 1.956-.33 4.764-1.272 5.078-1.703.402-.553 2.384-1.679 2.956-1.679.312 0 .84-.415 1.172-.922.333-.507 1.356-1.17 2.275-1.474.919-.303 2.025-1.001 2.458-1.551.432-.551 1.303-1.315 1.935-1.699.632-.384 1.264-1.062 1.405-1.506.141-.444.594-.915 1.008-1.046.414-.131 1.222-1.04 1.797-2.02.574-.98 1.216-1.782 1.427-1.782.854 0-1.74-4.572-3.002-5.291-.28-.159-.733-.828-1.006-1.486-.272-.658-.82-1.299-1.217-1.425-.396-.126-1.187-.84-1.756-1.587-.57-.746-1.396-1.471-1.836-1.611-.44-.14-.8-.484-.8-.765 0-.792-1.32-1.799-2.726-2.08-.701-.14-1.274-.412-1.274-.605 0-.935-1.362-.082-4.24 2.658-1.738 1.654-3.928 3.382-4.867 3.839-.939.457-1.881 1.157-2.094 1.555-.278.519-1.209.849-3.293 1.168-1.598.245-3.822.711-4.941 1.037-2.555.744-7.572.767-9.623.043-.857-.302-2.498-.679-3.646-.837-1.198-.165-2.643-.696-3.392-1.247-.717-.528-1.863-1.223-2.545-1.544-.683-.321-1.548-1.051-1.922-1.621-.373-.571-1.12-1.238-1.658-1.483-.539-.246-.979-.672-.979-.947 0-.275-.525-.941-1.166-1.481-.642-.54-1.355-1.664-1.585-2.498-.231-.834-.89-2.009-1.466-2.61-1.238-1.292-1.953-8.52-1.562-15.782.309-5.722.508-6.614 1.813-8.1.641-.73 1.166-1.638 1.166-2.016 0-1.077 5.798-6.902 7.094-7.127.608-.105 1.429-.624 1.823-1.152.499-.668 1.291-1.047 2.594-1.243 2.1-.315 4.305-1.141 4.685-1.756.138-.223.58-.406.982-.406s1.225-.256 1.829-.57c.787-.408 1.383-.462 2.1-.189.55.209 2.011.354 3.247.322 2.858-.073 5.255.372 6.133 1.138.378.329 1.876.929 3.329 1.332 1.755.486 2.904 1.066 3.423 1.726.43.547 1.182 1.115 1.671 1.263.49.149 1.38.744 1.978 1.324a51.13 51.13 0 001.855 1.709c.422.36.946.975 1.165 1.367 1.02 1.823 5.149 1.32 6.246-.761 1.123-2.132 2.651-4.036 3.667-4.571.533-.281 1.083-.964 1.222-1.519.337-1.344-.058-1.664-.661-.537-.266.497-.991 1.33-1.611 1.852-.621.522-1.24 1.301-1.377 1.732-.136.43-.483.782-.769.782-.287 0-.95.629-1.473 1.397-.524.769-1.075 1.399-1.226 1.4-.886.009-2.413-.986-4.526-2.949-1.32-1.226-2.611-2.234-2.869-2.239-.258-.005-1.016-.555-1.684-1.223-.667-.668-2.048-1.465-3.068-1.772-1.02-.307-2.167-.841-2.55-1.187-2.244-2.032-16.749-1.955-20.57.109-1.287.695-2.682 1.264-3.099 1.264-.417 0-1.426.63-2.242 1.4-.817.77-1.585 1.4-1.708 1.4-.369 0-4.41 3.803-4.41 4.15 0 .177-.357.621-.794.986-.776.649-2.209 2.983-3.402 5.542-2.559 5.486-2.432 21.606.196 24.922.436.55 1.049 1.571 1.363 2.269.314.698 1.016 1.561 1.562 1.919.545.357 1.083.999 1.195 1.427.112.428.759 1.095 1.439 1.482.68.386 1.237.892 1.238 1.123.002.23.718.86 1.592 1.4.874.539 1.594 1.124 1.6 1.3.016.475 3.263 1.861 4.385 1.871.536.005 1.346.344 1.8.754 2.462 2.221 14.111 2.262 16.911.059.563-.442 1.454-.804 1.982-.804 1.155 0 3.777-1.036 4.333-1.713.22-.268 1.085-.836 1.922-1.262.836-.426 2.707-1.931 4.157-3.346l2.635-2.571 1.543.462c.869.26 1.543.716 1.543 1.042 0 .32.621.987 1.379 1.484.759.497 1.462 1.217 1.562 1.601.1.383.738 1.013 1.418 1.4.68.386 1.237.908 1.238 1.159.002.251.723 1.328 1.603 2.393.88 1.065 1.6 2.284 1.6 2.709 0 1.059-7.389 8.165-9.4 9.041-.88.384-1.943 1.081-2.362 1.549-.419.469-1.002.852-1.294.852-.293 0-1.708.624-3.145 1.386-1.545.819-3.881 1.626-5.718 1.975-1.708.324-3.91.857-4.893 1.184-2.959.984-9.185 1.604-11.012 1.097-.867-.241-2.258-.439-3.092-.44-.834-.001-2.634-.343-4-.76-1.366-.418-3.986-1.036-5.821-1.375-1.849-.341-3.544-.884-3.8-1.216-.255-.33-1.525-.952-2.824-1.384-1.298-.431-2.509-1.048-2.69-1.372-.181-.323-1.188-.962-2.239-1.42-1.05-.458-2.42-1.383-3.044-2.054-.624-.672-1.384-1.221-1.69-1.221-.305 0-.828-.527-1.161-1.172-.334-.644-.929-1.274-1.324-1.399s-1.031-.757-1.413-1.404c-.382-.647-1.025-1.281-1.43-1.41-.404-.128-1.053-.939-1.442-1.802-.389-.863-1.13-1.965-1.645-2.45-.516-.484-1.149-1.529-1.407-2.322-.259-.792-.887-1.941-1.396-2.553-.509-.611-1.035-1.781-1.169-2.6-.521-3.194-.669-3.682-1.395-4.604-1.433-1.823-1.659-4.09-1.524-15.313l.13-10.771 1.085-2.208c.596-1.215 1.282-3.132 1.524-4.261.242-1.128.79-2.368 1.217-2.755.428-.387.964-1.397 1.193-2.245.228-.848.966-2.169 1.639-2.936 1.423-1.621.448-2.098-1.183-.579M97.2 175.15c2.795.14 5.385.471 5.874.75.48.275 1.341.5 1.912.5.572 0 2.092.355 3.38.788 1.287.434 3.666 1.004 5.287 1.267 2.333.379 3.197.72 4.147 1.639.66.639 1.674 1.257 2.254 1.375.593.119 1.247.635 1.495 1.178.241.531.888 1.169 1.437 1.42.549.25 1.112.832 1.251 1.294.139.461.661 1.289 1.159 1.839 1.227 1.354 1.646 2.283 1.962 4.353.148.963.753 2.763 1.346 4 1.602 3.34 1.626 11.607.043 14.647-.572 1.1-1.166 2.854-1.318 3.898-.162 1.109-.685 2.383-1.259 3.064-.539.642-1.243 1.795-1.564 2.563-.324.775-1.211 1.784-1.995 2.268-.776.48-1.411 1.024-1.411 1.21 0 .186-.99.792-2.2 1.346-1.21.554-2.2 1.168-2.2 1.365 0 .632-1.912 1.255-4.693 1.529-1.489.147-3.193.512-3.787.812-2.164 1.092-15.52.742-16.637-.436l-.917-.968.053-18.774c.047-16.456-.025-18.927-.582-20.006-.351-.677-.66-1.735-.689-2.351-.028-.616-.252.23-.497 1.88-.279 1.881-.447 10.198-.448 22.289l-.003 19.289.911.911c1.879 1.881 19.753 1.473 23.107-.527.671-.4 1.993-.85 2.939-1.001.946-.152 2.598-.88 3.672-1.618 1.073-.739 2.123-1.343 2.332-1.343.21 0 .712-.421 1.118-.936.405-.516 1.106-1.135 1.557-1.376.451-.242 1.15-1.17 1.553-2.064.403-.893.956-1.624 1.228-1.624.537 0 1.783-2.758 1.783-3.946 0-.402.349-1.046.775-1.432 2.128-1.925 2.193-21.433.073-22.139-.244-.082-.727-1.121-1.073-2.31-.859-2.953-5.279-8.509-7.675-9.647-.715-.339-1.3-.772-1.3-.961 0-.443-2.161-1.565-3.014-1.565-.359 0-2.033-.554-3.719-1.23-3.056-1.226-3.099-1.231-11.867-1.351-5.982-.081-7.199-.04-3.8.131m192.4 14.05c.33.213.96.388 1.4.388.662 0 .697-.067.2-.388-.33-.213-.96-.388-1.4-.388-.662 0-.697.067-.2.388" fill="#5f731a"/><path d="M204.993 152.378c-1.88.174-3.2.537-4 1.101-.819.578-2.317.979-4.78 1.278-3.227.393-3.678.552-4.488 1.587-.69.882-1.352 1.21-2.84 1.407-1.503.199-2.131.514-2.784 1.397-.463.627-1.359 1.244-1.99 1.37-.671.134-1.376.656-1.697 1.256-.302.564-.821 1.026-1.154 1.026-.876 0-10.06 9.532-10.06 10.441 0 .417-.135.762-.3.765-.687.014-1.306.711-1.905 2.144-.35.838-.447 1.406-.216 1.263.232-.143.421-.513.421-.821 0-.777 1.598-2.192 2.475-2.192.399 0 .725-.144.725-.32 0-.974 12.25-12.48 13.288-12.48.24 0 1.021-.446 1.736-.991.715-.546 2.352-1.378 3.638-1.851 1.286-.472 2.698-1.185 3.139-1.585.529-.48 2.224-.946 5-1.376 2.309-.357 5.189-.845 6.399-1.083 6.178-1.218 22.252.525 24.8 2.69.33.281 1.578.844 2.774 1.253 1.195.409 2.6 1.133 3.122 1.609.521.477 1.748 1.243 2.726 1.702.978.46 1.778 1.018 1.778 1.241 0 .222.595.687 1.321 1.034.727.347 1.672 1.153 2.1 1.792.429.64.959 1.164 1.179 1.165.22.001.76.547 1.2 1.213.44.666 1.206 1.48 1.701 1.809.855.567.872.669.321 1.988-.524 1.253-.517 1.39.065 1.39.356 0 .514.133.351.295-.162.162-.579.297-.926.3-.347.003-.982.68-1.411 1.505-.429.825-1.032 1.5-1.34 1.5-.332 0-.561.409-.561 1 0 .55-.382 1.338-.85 1.75-2.596 2.291-4.243 4.45-3.395 4.45.345 0 .937-.495 1.316-1.1.607-.971 2.1-2.637 4.03-4.5.342-.33.909-.924 1.26-1.32a84.92 84.92 0 011.672-1.8c2.367-2.473 2.711-7.267.523-7.283-.196-.001-.673-.558-1.059-1.238-.387-.68-1.02-1.318-1.406-1.419-.386-.101-1.006-.714-1.378-1.362-.409-.713-1.006-1.178-1.513-1.178-.514 0-1.1-.466-1.519-1.206-.446-.79-1.173-1.341-2.107-1.596-.784-.214-1.834-.823-2.333-1.354-.499-.531-1.702-1.166-2.674-1.411-.972-.244-1.767-.618-1.767-.83 0-.85-2.068-1.646-5.211-2.004-2.442-.279-3.548-.597-4.198-1.208-1.467-1.377-10.959-1.977-19.198-1.213m84.407-.108c-3.066.259-4.208.572-4.934 1.351-.513.551-1.611.894-3.697 1.156-2.349.295-3.138.571-3.784 1.322-.449.523-1.67 1.189-2.713 1.481-1.252.35-2.173.92-2.711 1.675-.449.63-1.179 1.145-1.623 1.145-.518 0-.96.404-1.233 1.127-.234.62-.932 1.418-1.551 1.773-.619.356-1.241 1.108-1.383 1.673-.142.565-.488 1.027-.768 1.027-.811 0-1.803 1.845-1.803 3.353 0 2.115.93 2.038 1.403-.117.251-1.143.62-1.836.977-1.836.317 0 .938-.63 1.382-1.4.443-.77.989-1.474 1.212-1.563.224-.09.939-.765 1.59-1.5.651-.736 1.367-1.337 1.591-1.337.224 0 .955-.518 1.626-1.152.67-.633 2.125-1.445 3.233-1.803 1.108-.359 2.283-.966 2.612-1.349.403-.47 2.217-.996 5.586-1.621 2.743-.509 5.541-1.094 6.216-1.3 1.633-.498 8.017-.479 9.775.029.768.222 3.827.787 6.797 1.254 2.973.468 5.699 1.109 6.066 1.427.367.318 1.8.931 3.186 1.362 1.386.431 2.802 1.04 3.147 1.352.346.313 1.643 1.018 2.884 1.566 1.241.549 2.405 1.241 2.587 1.537.181.296.895.932 1.585 1.413 2.354 1.642 2.099 4.374-.71 7.599-.63.723-1.145 1.471-1.145 1.662 0 .192-.64 1.114-1.421 2.049-2.359 2.823-3.79 6.372-2.346 5.818.348-.134.704-.243.792-.243.087 0 .548-.765 1.024-1.7.477-.935 1.185-1.925 1.575-2.199.39-.275 1.019-1.31 1.397-2.3.378-.991.856-1.801 1.062-1.801.621 0 1.461-1.039 1.741-2.152.144-.576.423-1.048.619-1.048.938 0 1.957-1.677 1.957-3.219 0-1.525-1.395-3.581-2.43-3.581-.172 0-.981-.63-1.797-1.4-.817-.77-1.821-1.4-2.233-1.4-.411 0-1.303-.531-1.982-1.18-.817-.78-1.964-1.331-3.396-1.628-1.189-.247-2.162-.595-2.162-.774 0-.808-2.229-1.635-5.365-1.992-2.307-.262-3.776-.649-4.525-1.192-1.821-1.321-10.56-1.986-17.91-1.364m-220.347 3.037c-.583.43-.686.831-.469 1.822.307 1.396 1.016 1.735 1.016.485 0-1.669.739-1.72 22.365-1.534 19.643.169 20.721.216 22.435.986.99.445 3.666 1.141 5.947 1.547 2.281.406 4.351.932 4.6 1.17.498.474 3.082 1.612 4.653 2.049.55.152 1.517.709 2.148 1.238.632.528 1.712 1.201 2.4 1.495 1.038.445 5.617 4.677 8.715 8.057.893.974 1.947 2.764 3.402 5.778.584 1.21 1.468 3.01 1.966 4 .764 1.522 1.991 5.612 2.878 9.598.122.548.552 1.538.955 2.2.55.901.741 2.053.766 4.602.028 2.89.097 3.225.458 2.23.685-1.885-.219-11.108-1.263-12.877-.454-.769-.825-1.83-.825-2.356 0-1.927-.905-5.102-1.673-5.87-.434-.434-1.043-1.645-1.354-2.692-.311-1.047-.942-2.245-1.402-2.661-.46-.417-1.066-1.301-1.346-1.966-.586-1.389-5.731-7.008-6.417-7.008-.252 0-.976-.54-1.608-1.2-.632-.66-1.413-1.2-1.734-1.2-.322 0-1.172-.604-1.889-1.342-.932-.96-1.783-1.407-2.985-1.568-1-.134-2.109-.627-2.737-1.216-.769-.722-1.864-1.124-4.04-1.483-1.911-.315-3.555-.869-4.57-1.541l-1.586-1.05-24.029-.122c-19.927-.101-24.158-.028-24.777.429m217.548 20.292c-.666.736-1.953 3.797-2.466 5.866-.139.561.29 1.726 1.225 3.321.792 1.351 1.44 2.61 1.44 2.796 0 .382 2.174 1.218 3.167 1.218.356 0 1.298.442 2.092.982 1.202.816 2.079 1.016 5.193 1.185 2.062.112 3.298.075 2.748-.082-.55-.157-1.514-.633-2.142-1.058-.628-.426-2.581-1.086-4.339-1.468-2.303-.499-3.366-.934-3.799-1.552-.33-.471-1.007-1.012-1.504-1.201-2.155-.819-1.954-8.936.233-9.417 1.378-.303 1.489-.805.251-1.137-1.278-.342-1.299-.337-2.099.547m-196.301.033c-1.015.591-1.036 10.437-.026 12.554 1.346 2.824 1.713 1.535 1.721-6.043.006-6.691-.544-6.141 6.138-6.149 3.29-.004 4.673-.132 4.267-.394-.798-.516-11.207-.488-12.1.032m118.694.002c-.605.236-.437.316.706.338.825.015 1.5-.041 1.5-.125 0-.357-1.475-.499-2.206-.213m-16.203 8.449c-1.755 1.805-3.191 3.599-3.191 3.986s-.541 1.319-1.201 2.071c-.871.992-1.257 1.904-1.401 3.314-.163 1.602-.131 1.743.181.794.209-.634.736-1.534 1.172-2 .436-.467 1.009-1.715 1.275-2.774.299-1.194.827-2.153 1.39-2.521.499-.327 1.011-1.005 1.136-1.505.126-.501.686-1.119 1.244-1.374.559-.254 1.222-.915 1.474-1.468.252-.553.7-1.006.994-1.006.295 0 .536-.18.536-.4 0-.737-.401-.416-3.609 2.883M186.528 202c0 1.43.073 2.015.161 1.3.089-.715.089-1.885 0-2.6-.088-.715-.161-.13-.161 1.3" fill="#5c5c5c"/></g></svg>