<svg id="svg" version="1.1" xmlns="http://www.w3.org/2000/svg" xmlns:xlink="http://www.w3.org/1999/xlink" width="400" height="400" viewBox="0, 0, 400,400"><g id="svgg"><path id="path0" d="M69.060 159.600 C 68.894 160.370,68.947 166.670,69.178 173.600 C 69.408 180.530,69.597 199.709,69.598 216.220 C 69.600 239.034,69.715 246.355,70.080 246.720 C 70.440 247.080,75.409 247.200,89.980 247.200 C 112.187 247.199,116.635 246.916,120.887 245.233 C 122.489 244.599,124.609 243.949,125.599 243.788 C 126.607 243.625,127.618 243.182,127.899 242.780 C 128.175 242.386,129.345 241.752,130.500 241.370 C 131.655 240.988,132.836 240.342,133.124 239.935 C 133.413 239.528,134.214 238.903,134.905 238.546 C 136.685 237.625,140.245 234.109,141.430 232.100 C 141.982 231.165,142.610 230.400,142.825 230.400 C 143.041 230.400,143.431 229.905,143.693 229.300 C 143.954 228.695,144.670 227.609,145.284 226.886 C 145.898 226.163,146.400 225.341,146.400 225.059 C 146.400 223.985,147.646 220.411,148.220 219.837 C 149.045 219.012,149.574 215.828,149.970 209.315 C 150.154 206.282,150.506 203.293,150.752 202.674 C 151.378 201.100,151.311 195.673,150.625 192.479 C 150.309 191.006,149.937 188.769,149.797 187.508 C 149.658 186.248,149.042 184.178,148.428 182.908 C 147.814 181.639,147.082 180.009,146.802 179.287 C 145.964 177.129,145.951 178.066,146.774 181.201 C 147.198 182.816,147.827 184.295,148.172 184.488 C 148.593 184.724,148.800 185.415,148.800 186.581 C 148.800 188.979,148.001 189.200,139.314 189.200 L 132.348 189.200 131.339 188.000 C 130.783 187.340,130.078 186.800,129.772 186.800 C 129.466 186.800,129.093 186.305,128.943 185.700 C 128.688 184.669,124.790 180.400,124.104 180.400 C 123.932 180.400,123.083 179.788,122.217 179.040 C 121.352 178.292,119.914 177.464,119.022 177.201 C 118.130 176.938,116.835 176.378,116.144 175.956 C 114.064 174.686,107.044 173.933,98.619 174.075 C 88.603 174.245,88.722 174.147,88.188 182.600 C 87.858 187.827,87.812 187.946,86.612 186.651 C 86.010 186.001,85.211 185.599,84.519 185.598 C 82.755 185.594,80.685 184.896,79.206 183.804 C 78.457 183.252,77.465 182.800,77.001 182.800 C 76.537 182.800,75.447 182.285,74.579 181.655 C 73.710 181.025,72.460 180.336,71.800 180.123 C 70.327 179.647,70.169 178.620,69.685 166.400 C 69.472 161.025,69.257 158.682,69.060 159.600 M268.523 164.078 C 268.041 164.311,267.551 164.750,267.434 165.054 C 267.308 165.384,267.703 165.252,268.411 164.729 C 270.013 163.544,270.048 163.341,268.523 164.078 M176.397 169.642 C 174.199 171.865,172.400 173.867,172.400 174.089 C 172.400 174.312,171.868 175.101,171.217 175.842 C 170.566 176.583,169.847 177.883,169.619 178.731 C 169.390 179.579,168.854 180.589,168.426 180.976 C 167.999 181.363,167.451 182.603,167.209 183.731 C 166.967 184.860,166.281 186.777,165.685 187.992 L 164.600 190.200 164.470 200.971 C 164.335 212.224,164.560 214.460,166.012 216.306 C 166.434 216.842,166.886 217.938,167.016 218.741 C 167.542 221.968,167.703 222.462,168.576 223.510 C 169.075 224.109,169.695 225.249,169.954 226.041 C 170.212 226.834,170.845 227.879,171.361 228.363 C 171.876 228.848,172.617 229.950,173.006 230.813 C 173.395 231.676,174.044 232.487,174.448 232.615 C 174.853 232.744,175.496 233.378,175.878 234.025 C 176.260 234.672,176.896 235.304,177.291 235.429 C 177.686 235.554,178.281 236.184,178.615 236.828 C 178.948 237.473,179.471 238.000,179.776 238.000 C 180.082 238.000,180.842 238.549,181.466 239.221 C 182.090 239.892,183.460 240.817,184.510 241.275 C 185.561 241.733,186.568 242.372,186.749 242.695 C 186.930 243.019,188.141 243.636,189.439 244.067 C 190.738 244.499,192.008 245.121,192.263 245.451 C 192.519 245.783,194.214 246.326,196.063 246.667 C 197.898 247.006,200.518 247.624,201.884 248.042 C 203.250 248.459,205.050 248.801,205.884 248.802 C 206.718 248.803,208.109 249.001,208.976 249.242 C 210.803 249.749,217.029 249.129,219.988 248.145 C 220.971 247.818,223.173 247.285,224.881 246.961 C 226.718 246.612,229.054 245.805,230.599 244.986 C 232.036 244.224,233.451 243.600,233.744 243.600 C 234.036 243.600,234.619 243.217,235.038 242.748 C 235.457 242.280,236.520 241.583,237.400 241.199 C 239.411 240.323,246.800 233.217,246.800 232.158 C 246.800 231.733,246.080 230.514,245.200 229.449 C 244.320 228.384,243.599 227.307,243.597 227.056 C 243.596 226.805,243.039 226.283,242.359 225.897 C 241.679 225.510,241.041 224.880,240.941 224.497 C 240.841 224.113,240.138 223.393,239.379 222.896 C 238.621 222.399,238.000 221.732,238.000 221.412 C 238.000 221.086,237.326 220.630,236.457 220.370 L 234.914 219.908 232.279 222.479 C 230.829 223.894,228.958 225.399,228.122 225.825 C 227.285 226.251,226.420 226.819,226.200 227.087 C 225.644 227.764,223.022 228.800,221.867 228.800 C 221.339 228.800,220.448 229.162,219.885 229.604 C 217.085 231.807,205.436 231.766,202.974 229.545 C 202.520 229.135,201.710 228.796,201.174 228.791 C 200.052 228.781,196.805 227.395,196.789 226.920 C 196.783 226.744,196.063 226.159,195.189 225.620 C 194.315 225.080,193.599 224.450,193.597 224.220 C 193.596 223.989,193.039 223.483,192.359 223.097 C 191.679 222.710,191.032 222.043,190.920 221.615 C 190.808 221.187,190.270 220.545,189.725 220.188 C 189.179 219.830,188.477 218.967,188.163 218.269 C 187.849 217.571,187.236 216.550,186.800 216.000 C 184.172 212.684,184.045 196.564,186.604 191.078 C 187.797 188.519,189.230 186.185,190.006 185.536 C 190.443 185.171,190.800 184.727,190.800 184.550 C 190.800 184.203,194.841 180.400,195.210 180.400 C 195.333 180.400,196.101 179.770,196.918 179.000 C 197.734 178.230,198.743 177.600,199.160 177.600 C 199.577 177.600,200.972 177.031,202.259 176.336 C 206.080 174.272,220.585 174.195,222.829 176.227 C 223.212 176.573,224.359 177.107,225.379 177.414 C 226.399 177.721,227.780 178.518,228.447 179.186 C 229.115 179.854,229.873 180.404,230.131 180.409 C 230.389 180.414,231.680 181.422,233.000 182.648 C 235.113 184.611,236.640 185.606,237.526 185.597 C 237.677 185.596,238.228 184.966,238.752 184.197 C 239.275 183.429,239.950 182.800,240.252 182.800 C 240.553 182.800,240.800 182.609,240.800 182.377 C 240.800 182.144,241.415 181.289,242.167 180.477 C 245.552 176.821,247.610 174.340,248.191 173.217 C 249.088 171.484,248.199 171.705,247.052 173.500 C 246.525 174.325,245.076 175.900,243.832 177.000 C 242.588 178.100,241.302 179.495,240.974 180.101 C 239.436 182.944,235.368 183.685,234.290 181.319 C 234.060 180.814,233.612 180.400,233.296 180.400 C 232.979 180.400,232.124 179.804,231.396 179.076 C 230.668 178.348,229.314 177.502,228.389 177.196 C 227.463 176.891,226.315 176.334,225.839 175.959 C 224.772 175.120,223.013 174.653,217.600 173.773 C 212.857 173.001,212.990 173.004,210.000 173.595 C 208.790 173.834,206.283 174.304,204.429 174.639 C 202.063 175.067,200.712 175.540,199.898 176.224 C 199.260 176.761,198.409 177.200,198.005 177.200 C 197.602 177.200,196.361 177.920,195.248 178.800 C 194.134 179.680,193.054 180.400,192.847 180.400 C 192.640 180.400,192.017 180.940,191.461 181.600 C 190.906 182.260,190.291 182.800,190.096 182.800 C 189.600 182.800,188.000 184.554,188.000 185.097 C 188.000 185.343,187.181 186.096,186.180 186.772 L 184.360 188.000 176.180 188.000 L 168.000 188.000 168.000 186.247 C 168.000 184.878,168.162 184.451,168.739 184.300 C 169.461 184.111,170.400 181.483,170.400 179.654 C 170.400 179.218,170.855 178.321,171.410 177.661 C 171.966 177.000,172.621 175.861,172.865 175.130 C 173.110 174.398,173.730 173.350,174.244 172.800 C 174.758 172.250,175.903 171.028,176.789 170.085 C 177.675 169.141,178.400 168.192,178.400 167.976 C 178.400 167.760,178.840 167.382,179.378 167.137 C 180.223 166.752,181.128 165.600,180.585 165.600 C 180.480 165.600,178.596 167.419,176.397 169.642 M265.700 167.701 C 264.985 168.573,264.400 169.595,264.400 169.972 C 264.400 170.856,263.308 174.250,262.517 175.821 C 261.511 177.821,261.998 186.999,263.291 190.400 C 263.834 191.830,264.398 193.643,264.544 194.430 C 264.695 195.241,265.327 196.355,266.005 197.005 C 266.662 197.634,267.200 198.382,267.200 198.666 C 267.200 198.949,267.695 199.498,268.300 199.884 C 268.905 200.270,269.626 200.890,269.901 201.262 C 270.177 201.634,271.033 202.147,271.804 202.401 C 272.575 202.656,273.374 203.177,273.579 203.560 C 273.783 203.943,274.727 204.484,275.675 204.763 C 277.775 205.380,280.000 206.428,280.000 206.799 C 280.000 207.277,281.993 208.000,283.319 208.002 C 285.091 208.005,287.450 208.707,288.197 209.454 C 288.555 209.812,290.050 210.229,291.710 210.435 C 295.950 210.959,296.831 211.183,298.600 212.185 C 299.480 212.684,300.891 213.218,301.736 213.371 C 308.444 214.589,311.469 223.427,306.859 228.342 C 306.167 229.081,305.600 229.824,305.600 229.994 C 305.600 232.101,289.418 231.942,286.884 229.809 C 286.268 229.291,285.118 228.746,284.329 228.598 C 283.540 228.450,282.308 227.940,281.591 227.464 C 280.874 226.989,279.714 226.240,279.014 225.800 C 276.814 224.417,274.384 222.649,272.762 221.252 C 270.782 219.547,269.502 219.928,267.404 222.847 C 266.633 223.921,265.860 224.800,265.687 224.800 C 265.514 224.800,265.038 225.385,264.629 226.100 C 263.883 227.404,263.279 228.124,260.603 230.892 C 258.824 232.731,258.887 234.871,260.740 235.523 C 261.323 235.728,262.250 236.324,262.800 236.848 C 263.350 237.372,264.487 238.150,265.328 238.578 C 266.168 239.006,267.021 239.666,267.225 240.046 C 267.428 240.425,268.230 240.946,269.007 241.202 C 269.784 241.459,270.911 242.079,271.510 242.580 C 272.110 243.082,273.642 243.793,274.916 244.162 C 276.189 244.530,277.563 245.163,277.968 245.568 C 278.473 246.073,279.817 246.452,282.252 246.777 C 284.203 247.037,286.880 247.585,288.200 247.994 C 293.941 249.773,301.726 249.768,305.800 247.982 C 306.680 247.596,308.570 247.163,310.000 247.020 C 311.964 246.824,313.153 246.422,314.860 245.380 C 316.103 244.621,317.315 244.000,317.553 244.000 C 318.084 244.000,319.803 242.504,322.607 239.600 C 326.594 235.472,327.183 234.699,327.448 233.250 C 327.595 232.452,328.241 230.810,328.886 229.600 C 330.575 226.430,330.480 216.271,328.731 213.000 C 328.143 211.900,327.469 210.264,327.234 209.365 C 326.999 208.465,326.162 207.025,325.374 206.165 C 324.586 205.304,323.819 204.462,323.671 204.293 C 323.522 204.124,322.905 203.616,322.300 203.164 C 321.695 202.712,321.200 202.085,321.200 201.771 C 321.200 201.457,320.921 201.200,320.580 201.200 C 319.739 201.200,317.619 200.101,316.400 199.032 C 315.850 198.550,314.500 197.930,313.400 197.653 C 312.300 197.377,311.037 196.809,310.593 196.392 C 310.097 195.927,308.552 195.419,306.593 195.077 C 304.837 194.771,302.500 194.051,301.400 193.478 C 300.300 192.905,298.508 192.239,297.418 191.998 C 296.328 191.757,294.558 191.119,293.485 190.580 C 292.412 190.041,291.277 189.600,290.963 189.600 C 290.143 189.600,286.800 187.975,286.800 187.577 C 286.800 187.393,286.152 186.137,285.360 184.786 C 283.822 182.161,283.813 181.965,285.080 178.535 C 287.121 173.013,292.925 171.332,301.400 173.810 C 303.160 174.324,305.320 174.872,306.200 175.028 C 307.080 175.184,308.283 175.650,308.874 176.064 C 309.464 176.478,310.721 177.090,311.668 177.424 C 312.614 177.758,313.846 178.470,314.406 179.005 C 317.000 181.491,319.744 181.008,321.956 177.676 C 323.944 174.681,325.074 173.085,326.116 171.800 C 327.404 170.209,328.408 168.211,328.366 167.320 C 328.343 166.847,328.224 166.955,328.018 167.635 C 327.630 168.915,326.392 170.892,325.710 171.320 C 325.429 171.496,324.903 172.214,324.541 172.915 C 324.178 173.616,323.413 174.674,322.841 175.266 C 322.268 175.857,321.090 177.075,320.222 177.971 C 318.411 179.839,317.924 179.953,317.101 178.700 C 316.765 178.188,315.695 177.561,314.620 177.245 C 313.580 176.940,312.420 176.358,312.041 175.952 C 311.662 175.545,310.013 174.878,308.376 174.469 C 306.739 174.060,304.787 173.408,304.039 173.020 C 301.636 171.777,291.743 171.421,289.795 172.507 C 287.271 173.915,285.674 175.251,285.450 176.143 C 285.313 176.690,284.660 177.678,284.000 178.338 C 282.738 179.601,282.211 183.589,283.225 184.215 C 283.636 184.469,283.990 185.226,284.574 187.100 L 284.854 188.000 275.072 188.000 L 265.290 188.000 264.797 183.973 C 263.926 176.863,264.378 170.781,265.942 168.562 C 267.592 166.221,267.418 165.604,265.700 167.701 M112.867 176.370 C 114.553 177.046,116.227 177.600,116.586 177.600 C 117.439 177.600,119.600 178.722,119.600 179.165 C 119.600 179.354,120.185 179.787,120.900 180.126 C 123.296 181.264,127.716 186.820,128.575 189.773 C 128.921 190.962,129.404 192.001,129.648 192.083 C 131.768 192.789,131.703 212.297,129.575 214.222 C 129.149 214.608,128.800 215.252,128.800 215.654 C 128.800 216.842,127.554 219.600,127.017 219.600 C 126.745 219.600,126.192 220.331,125.789 221.224 C 125.386 222.118,124.687 223.046,124.236 223.288 C 123.785 223.529,123.084 224.148,122.679 224.664 C 122.273 225.179,121.771 225.600,121.561 225.600 C 121.352 225.600,120.302 226.204,119.229 226.943 C 118.155 227.681,116.503 228.409,115.557 228.561 C 114.611 228.712,113.289 229.162,112.618 229.562 C 109.264 231.562,91.391 231.970,89.511 230.089 L 88.600 229.179 88.481 210.781 C 88.403 198.611,88.511 191.608,88.801 190.092 C 89.042 188.831,89.349 185.124,89.482 181.854 L 89.725 175.909 90.962 175.338 C 93.542 174.149,109.164 174.884,112.867 176.370 M144.349 175.400 C 144.565 175.840,145.034 176.560,145.393 177.000 L 146.044 177.800 145.651 177.000 C 145.435 176.560,144.966 175.840,144.607 175.400 L 143.956 174.600 144.349 175.400 " stroke="none" fill="#a7cb15" fill-rule="evenodd"></path><path id="path1" d="M0.000 200.000 L 0.000 400.000 200.000 400.000 L 400.000 400.000 400.000 200.000 L 400.000 0.000 200.000 0.000 L 0.000 0.000 0.000 200.000 M219.754 152.388 C 222.450 152.672,223.521 152.962,224.191 153.591 C 224.841 154.202,225.947 154.520,228.389 154.799 C 231.532 155.157,233.600 155.953,233.600 156.803 C 233.600 157.015,234.395 157.389,235.367 157.633 C 236.339 157.878,237.542 158.513,238.041 159.044 C 238.540 159.575,239.590 160.184,240.374 160.398 C 241.308 160.653,242.035 161.204,242.481 161.994 C 242.900 162.734,243.486 163.200,244.000 163.200 C 244.507 163.200,245.104 163.665,245.513 164.378 C 245.885 165.026,246.505 165.639,246.891 165.740 C 247.277 165.841,247.910 166.479,248.297 167.159 C 248.683 167.839,249.160 168.396,249.356 168.397 C 251.544 168.413,251.200 173.207,248.833 175.680 C 248.265 176.274,247.513 177.084,247.161 177.480 C 246.810 177.876,246.243 178.470,245.901 178.800 C 243.971 180.663,242.478 182.329,241.871 183.300 C 241.492 183.905,240.945 184.400,240.655 184.400 C 240.365 184.400,239.921 184.855,239.667 185.412 C 238.853 187.199,234.439 187.484,233.502 185.810 C 233.286 185.425,232.765 184.815,232.343 184.455 C 231.922 184.095,231.087 183.326,230.488 182.746 C 229.890 182.166,229.000 181.571,228.510 181.422 C 228.021 181.274,227.269 180.706,226.839 180.159 C 226.320 179.499,225.171 178.919,223.416 178.433 C 221.963 178.030,220.401 177.363,219.945 176.950 C 218.802 175.916,206.949 175.810,205.742 176.823 C 204.668 177.724,203.165 178.296,201.029 178.617 C 199.698 178.816,198.976 179.170,198.539 179.837 C 198.201 180.353,197.326 180.992,196.595 181.256 C 195.864 181.521,195.074 182.159,194.839 182.674 C 194.604 183.190,193.955 183.820,193.396 184.074 C 192.838 184.329,192.278 184.947,192.152 185.448 C 192.027 185.948,191.515 186.626,191.016 186.953 C 190.458 187.318,189.924 188.279,189.631 189.444 C 189.368 190.487,188.725 191.849,188.201 192.472 C 186.899 194.019,186.703 195.843,186.862 204.922 L 187.000 212.749 188.115 213.912 C 188.728 214.552,189.418 215.758,189.649 216.592 C 189.879 217.426,190.592 218.550,191.234 219.090 C 191.875 219.630,192.400 220.296,192.400 220.571 C 192.400 220.846,192.840 221.272,193.379 221.518 C 193.917 221.763,194.664 222.430,195.037 223.001 C 195.411 223.571,196.276 224.301,196.959 224.622 C 197.641 224.943,198.787 225.638,199.504 226.166 C 200.253 226.717,201.698 227.248,202.896 227.413 C 204.044 227.571,205.685 227.948,206.542 228.250 C 208.593 228.974,213.610 228.951,216.165 228.207 C 217.284 227.881,219.508 227.415,221.106 227.170 C 223.190 226.851,224.121 226.521,224.399 226.002 C 224.612 225.604,225.554 224.904,226.493 224.447 C 227.432 223.990,229.622 222.262,231.360 220.608 C 234.238 217.868,235.600 217.015,235.600 217.950 C 235.600 218.143,236.173 218.415,236.874 218.555 C 238.280 218.836,239.600 219.843,239.600 220.635 C 239.600 220.916,239.960 221.260,240.400 221.400 C 240.840 221.540,241.666 222.265,242.236 223.011 C 242.805 223.758,243.596 224.472,243.992 224.598 C 244.389 224.724,244.937 225.365,245.209 226.023 C 245.482 226.681,245.935 227.350,246.215 227.509 C 247.477 228.228,250.071 232.800,249.217 232.800 C 249.006 232.800,248.364 233.602,247.790 234.582 C 247.215 235.562,246.407 236.471,245.993 236.602 C 245.579 236.733,245.126 237.204,244.985 237.648 C 244.844 238.092,244.212 238.770,243.580 239.154 C 242.948 239.538,242.077 240.302,241.645 240.853 C 241.212 241.403,240.106 242.101,239.187 242.404 C 238.268 242.708,237.245 243.371,236.912 243.878 C 236.580 244.385,236.052 244.800,235.740 244.800 C 235.168 244.800,233.186 245.926,232.784 246.479 C 232.470 246.910,229.662 247.852,227.706 248.182 C 226.781 248.338,225.596 248.802,225.075 249.213 C 222.313 251.385,200.074 251.375,197.309 249.200 C 196.778 248.782,195.501 248.318,194.472 248.168 C 192.313 247.853,189.600 246.863,189.600 246.390 C 189.600 246.212,188.745 245.751,187.700 245.366 C 186.655 244.982,185.438 244.345,184.995 243.953 C 184.552 243.560,183.348 242.867,182.319 242.412 C 181.291 241.957,180.342 241.247,180.211 240.835 C 180.080 240.423,179.439 239.865,178.787 239.594 C 178.134 239.324,177.600 238.943,177.600 238.748 C 177.600 238.553,176.271 237.073,174.647 235.459 C 173.023 233.846,171.573 232.146,171.426 231.683 C 171.279 231.220,170.820 230.733,170.405 230.602 C 169.975 230.465,169.351 229.555,168.951 228.481 C 168.565 227.447,167.843 226.180,167.346 225.667 C 166.835 225.139,166.231 223.748,165.956 222.467 C 165.689 221.220,165.242 219.930,164.963 219.599 C 161.664 215.692,161.882 185.200,165.209 185.200 C 165.424 185.200,165.601 184.795,165.602 184.300 C 165.606 182.737,166.398 180.465,167.340 179.312 C 167.841 178.701,168.566 177.353,168.951 176.319 C 169.361 175.218,169.973 174.336,170.426 174.192 C 170.852 174.057,171.200 173.617,171.200 173.214 C 171.200 172.328,180.404 162.800,181.260 162.800 C 181.593 162.800,182.112 162.338,182.414 161.774 C 182.735 161.174,183.440 160.652,184.111 160.518 C 184.742 160.392,185.638 159.775,186.101 159.148 C 186.754 158.265,187.382 157.950,188.885 157.751 C 190.373 157.554,191.035 157.226,191.725 156.344 C 192.535 155.309,192.986 155.150,196.213 154.757 C 198.676 154.458,200.174 154.057,200.993 153.479 C 202.865 152.159,212.340 151.608,219.754 152.388 M302.810 152.415 C 305.050 152.688,306.577 153.102,307.310 153.634 C 308.059 154.177,309.528 154.564,311.835 154.826 C 314.971 155.183,317.200 156.010,317.200 156.818 C 317.200 156.997,318.173 157.345,319.362 157.592 C 320.794 157.889,321.941 158.440,322.758 159.220 C 323.437 159.869,324.329 160.400,324.740 160.400 C 325.152 160.400,326.156 161.030,326.973 161.800 C 327.789 162.570,328.598 163.200,328.770 163.200 C 329.805 163.200,331.200 165.256,331.200 166.781 C 331.200 168.323,330.181 170.000,329.243 170.000 C 329.047 170.000,328.768 170.472,328.624 171.048 C 328.344 172.161,327.504 173.200,326.883 173.200 C 326.677 173.200,326.199 174.010,325.821 175.001 C 325.443 175.991,324.814 177.026,324.424 177.301 C 324.034 177.575,323.332 178.552,322.864 179.471 C 322.385 180.412,321.617 181.262,321.107 181.416 C 320.608 181.567,319.745 182.115,319.189 182.634 L 318.178 183.579 317.027 182.589 C 316.394 182.045,315.552 181.600,315.157 181.600 C 314.762 181.600,313.845 180.995,313.119 180.256 C 312.319 179.441,311.225 178.807,310.340 178.645 C 309.537 178.499,308.187 177.908,307.340 177.333 C 302.556 174.085,287.614 174.532,287.050 177.940 C 286.413 181.793,286.918 185.113,288.216 185.606 C 288.713 185.795,289.390 186.336,289.720 186.807 C 290.153 187.425,291.216 187.860,293.519 188.359 C 295.277 188.741,297.230 189.395,297.858 189.814 C 298.486 190.232,300.224 190.889,301.721 191.274 C 303.217 191.659,304.876 192.316,305.407 192.734 C 305.965 193.173,307.371 193.607,308.740 193.761 C 310.346 193.943,311.669 194.399,312.853 195.178 C 313.814 195.810,315.344 196.525,316.253 196.766 C 317.163 197.008,318.141 197.488,318.427 197.832 C 318.713 198.177,319.609 198.796,320.418 199.209 C 321.961 199.996,326.400 204.158,326.400 204.817 C 326.400 205.028,326.649 205.200,326.954 205.200 C 327.527 205.200,328.800 207.476,328.800 208.498 C 328.800 208.816,329.153 209.396,329.585 209.786 C 332.067 212.032,332.262 230.177,329.837 233.098 C 329.333 233.704,328.811 234.650,328.676 235.200 C 328.193 237.170,321.667 244.156,319.356 245.178 C 318.435 245.586,317.319 246.281,316.876 246.724 C 316.434 247.166,315.076 247.735,313.860 247.988 C 312.644 248.240,311.233 248.770,310.724 249.165 C 307.900 251.361,286.562 251.394,283.008 249.209 C 282.344 248.800,280.630 248.262,279.200 248.012 C 277.770 247.762,276.094 247.194,275.476 246.749 C 274.857 246.304,273.400 245.613,272.236 245.213 C 271.073 244.812,269.652 244.016,269.079 243.442 C 268.505 242.869,267.775 242.400,267.456 242.400 C 267.137 242.400,266.122 241.770,265.200 241.000 C 264.278 240.230,263.290 239.600,263.004 239.600 C 262.717 239.600,261.967 239.015,261.336 238.300 C 260.706 237.585,259.702 236.781,259.106 236.514 C 257.019 235.577,257.059 231.357,259.171 229.704 C 259.847 229.175,260.400 228.516,260.400 228.241 C 260.400 227.965,260.858 227.309,261.418 226.783 C 261.978 226.257,262.923 225.056,263.518 224.114 C 264.113 223.172,264.792 222.401,265.026 222.401 C 265.261 222.400,265.845 221.702,266.324 220.849 C 266.859 219.899,267.699 219.100,268.498 218.784 C 269.214 218.500,270.115 218.000,270.500 217.672 C 270.903 217.329,271.200 217.260,271.200 217.510 C 271.200 217.749,272.038 218.362,273.063 218.872 C 274.087 219.382,275.005 220.103,275.102 220.473 C 275.200 220.844,275.885 221.434,276.625 221.785 C 277.366 222.137,278.203 222.751,278.486 223.151 C 278.769 223.550,279.720 224.111,280.600 224.396 C 281.480 224.681,282.764 225.405,283.454 226.005 C 284.229 226.679,285.414 227.201,286.553 227.372 C 287.657 227.538,288.906 228.077,289.667 228.718 C 290.886 229.744,291.162 229.793,296.476 229.939 L 302.014 230.091 303.707 228.321 C 308.080 223.750,308.574 222.212,306.400 219.937 C 305.740 219.246,305.200 218.442,305.200 218.150 C 305.200 217.858,304.705 217.302,304.100 216.915 C 303.495 216.528,302.820 215.998,302.600 215.737 C 302.129 215.180,299.442 214.405,297.968 214.402 C 297.400 214.401,296.050 213.945,294.968 213.389 C 293.791 212.784,291.750 212.215,289.890 211.975 C 286.519 211.539,284.953 211.063,283.973 210.175 C 283.627 209.863,282.457 209.438,281.372 209.232 C 278.659 208.717,277.222 208.123,276.946 207.404 C 276.818 207.069,275.999 206.681,275.127 206.542 C 274.189 206.392,272.885 205.740,271.933 204.944 C 271.048 204.205,270.154 203.600,269.945 203.600 C 269.222 203.600,265.600 199.887,265.600 199.145 C 265.600 198.735,265.369 198.400,265.086 198.400 C 264.476 198.400,263.421 196.671,263.028 195.024 C 262.873 194.378,262.406 193.370,261.989 192.784 C 259.717 189.593,259.724 174.622,261.999 172.201 C 262.484 171.684,262.966 170.513,263.095 169.539 C 263.349 167.612,264.218 166.000,265.003 166.000 C 265.283 166.000,265.629 165.538,265.771 164.973 C 265.913 164.408,266.535 163.656,267.154 163.300 C 267.773 162.945,268.471 162.147,268.705 161.527 C 268.978 160.804,269.420 160.400,269.938 160.400 C 270.382 160.400,271.112 159.885,271.561 159.255 C 272.099 158.500,273.020 157.930,274.272 157.580 C 275.315 157.288,276.536 156.622,276.985 156.099 C 277.631 155.348,278.420 155.072,280.769 154.777 C 282.855 154.515,283.953 154.172,284.466 153.621 C 285.823 152.165,295.543 151.526,302.810 152.415 M119.445 156.050 C 120.460 156.722,122.104 157.276,124.015 157.591 C 126.191 157.950,127.286 158.352,128.055 159.074 C 128.683 159.663,129.792 160.156,130.792 160.290 C 131.994 160.451,132.845 160.898,133.777 161.858 C 134.494 162.596,135.344 163.200,135.666 163.200 C 135.987 163.200,136.768 163.740,137.400 164.400 C 138.032 165.060,138.756 165.600,139.008 165.600 C 139.694 165.600,144.839 171.219,145.425 172.608 C 145.705 173.273,146.311 174.157,146.771 174.574 C 147.231 174.990,147.862 176.188,148.173 177.235 C 148.484 178.282,149.093 179.493,149.527 179.927 C 150.295 180.695,151.200 183.870,151.200 185.797 C 151.200 186.323,151.563 187.370,152.007 188.122 C 153.192 190.131,153.767 197.108,153.224 202.900 C 152.992 205.375,152.802 208.369,152.801 209.553 C 152.800 210.952,152.536 212.142,152.046 212.953 C 151.631 213.639,151.169 215.280,151.019 216.600 C 150.634 219.991,150.073 221.927,149.231 222.769 C 148.832 223.168,148.283 224.420,148.012 225.550 C 147.727 226.738,147.149 227.900,146.644 228.303 C 146.163 228.686,145.546 229.546,145.272 230.213 C 144.999 230.880,144.151 232.128,143.387 232.986 C 142.624 233.844,142.000 234.778,142.000 235.063 C 142.000 235.348,141.505 235.901,140.900 236.291 C 140.295 236.681,139.392 237.480,138.893 238.066 C 138.394 238.652,137.179 239.605,136.193 240.183 C 135.207 240.761,134.400 241.378,134.400 241.554 C 134.400 241.729,133.687 242.087,132.814 242.348 C 131.942 242.610,130.973 243.189,130.659 243.637 C 130.295 244.157,129.174 244.661,127.545 245.036 C 126.145 245.358,124.547 245.951,123.992 246.354 C 122.632 247.344,121.986 247.514,117.800 247.984 C 115.820 248.206,113.169 248.750,111.910 249.194 C 109.732 249.960,108.647 250.000,89.772 250.000 C 68.133 250.000,68.282 250.015,67.234 247.715 C 66.497 246.098,66.647 159.285,67.389 158.000 C 67.706 157.450,68.142 156.614,68.357 156.142 C 68.965 154.808,68.454 154.832,93.830 154.918 L 117.859 155.000 119.445 156.050 M92.500 176.239 C 92.135 176.405,91.999 177.992,91.996 182.133 C 91.993 185.995,91.802 188.425,91.396 189.764 C 90.906 191.377,90.801 194.875,90.807 209.364 L 90.814 227.000 91.763 227.900 C 92.938 229.014,106.251 229.299,108.320 228.255 C 108.914 227.955,110.618 227.590,112.107 227.443 C 114.888 227.169,116.800 226.546,116.800 225.914 C 116.800 225.717,117.790 225.103,119.000 224.549 C 120.210 223.995,121.200 223.389,121.200 223.203 C 121.200 223.017,121.835 222.473,122.611 221.993 C 123.395 221.509,124.282 220.500,124.606 219.725 C 124.927 218.957,125.631 217.804,126.170 217.162 C 126.744 216.481,127.267 215.207,127.429 214.098 C 127.581 213.054,128.175 211.300,128.747 210.200 C 130.330 207.160,130.306 198.893,128.704 195.553 C 128.111 194.316,127.506 192.516,127.358 191.553 C 127.042 189.483,126.623 188.554,125.396 187.200 C 124.898 186.650,124.376 185.822,124.237 185.361 C 124.098 184.899,123.535 184.317,122.986 184.067 C 122.437 183.816,121.790 183.178,121.549 182.647 C 121.301 182.104,120.647 181.588,120.054 181.469 C 119.474 181.351,118.460 180.733,117.800 180.094 C 116.850 179.175,115.986 178.834,113.653 178.455 C 112.032 178.192,109.602 177.597,108.253 177.132 C 105.829 176.296,93.864 175.618,92.500 176.239 " stroke="none" fill="#242424" fill-rule="evenodd"></path><path id="path2" d="M207.888 154.245 C 207.729 154.404,206.654 154.672,205.500 154.841 C 196.877 156.100,194.944 156.499,194.201 157.170 C 193.760 157.568,192.500 158.221,191.400 158.621 C 190.300 159.022,188.929 159.734,188.353 160.204 C 187.777 160.674,186.697 161.311,185.953 161.619 C 185.209 161.927,184.179 162.679,183.664 163.289 C 183.150 163.900,182.467 164.400,182.146 164.400 C 181.825 164.400,181.258 164.931,180.886 165.579 C 180.514 166.228,179.802 166.944,179.305 167.171 C 178.807 167.397,178.400 167.760,178.400 167.976 C 178.400 168.192,177.675 169.141,176.789 170.085 C 175.903 171.028,174.758 172.250,174.244 172.800 C 173.730 173.350,173.110 174.398,172.865 175.130 C 172.621 175.861,171.966 177.000,171.410 177.661 C 170.855 178.321,170.400 179.218,170.400 179.654 C 170.400 181.483,169.461 184.111,168.739 184.300 C 168.162 184.451,168.000 184.878,168.000 186.247 L 168.000 188.000 176.180 188.000 L 184.360 188.000 186.180 186.772 C 187.181 186.096,188.000 185.317,188.000 185.041 C 188.000 184.511,189.642 182.800,190.152 182.800 C 190.317 182.800,190.906 182.260,191.461 181.600 C 192.017 180.940,192.640 180.400,192.847 180.400 C 193.054 180.400,194.134 179.680,195.248 178.800 C 196.361 177.920,197.602 177.200,198.005 177.200 C 198.409 177.200,199.260 176.761,199.898 176.224 C 200.712 175.540,202.063 175.067,204.429 174.639 C 206.283 174.304,208.790 173.834,210.000 173.595 C 212.990 173.004,212.857 173.001,217.600 173.773 C 223.013 174.653,224.772 175.120,225.839 175.959 C 226.315 176.334,227.463 176.891,228.389 177.196 C 229.314 177.502,230.668 178.348,231.396 179.076 C 232.124 179.804,232.979 180.400,233.296 180.400 C 233.612 180.400,234.062 180.819,234.296 181.331 C 235.319 183.576,239.056 183.061,240.718 180.444 C 241.082 179.870,242.645 178.113,244.190 176.540 C 245.736 174.967,247.492 173.098,248.094 172.387 L 249.189 171.095 247.594 169.500 C 246.717 168.623,246.000 167.747,246.000 167.553 C 246.000 167.359,245.775 167.199,245.500 167.199 C 245.225 167.198,244.650 166.675,244.221 166.035 C 243.793 165.396,242.848 164.590,242.121 164.243 C 241.395 163.896,240.800 163.431,240.800 163.209 C 240.800 162.986,240.000 162.428,239.022 161.968 C 238.044 161.509,236.817 160.743,236.296 160.266 C 235.774 159.790,234.369 159.066,233.174 158.657 C 231.978 158.248,230.730 157.685,230.400 157.404 C 228.440 155.739,209.107 153.026,207.888 154.245 M290.400 154.417 C 289.850 154.599,287.160 155.165,284.423 155.674 C 281.260 156.262,279.219 156.844,278.823 157.268 C 278.480 157.636,277.165 158.324,275.900 158.797 C 274.635 159.270,273.600 159.789,273.600 159.949 C 273.600 160.109,272.795 160.749,271.811 161.371 C 270.827 161.994,269.925 162.807,269.807 163.179 C 269.689 163.551,269.054 164.253,268.396 164.740 C 267.738 165.226,267.200 165.883,267.200 166.200 C 267.200 166.517,266.625 167.593,265.922 168.590 C 264.379 170.779,263.931 176.906,264.797 183.973 L 265.290 188.000 275.072 188.000 L 284.854 188.000 284.574 187.100 C 283.990 185.226,283.636 184.469,283.225 184.215 C 282.211 183.589,282.738 179.601,284.000 178.338 C 284.660 177.678,285.313 176.690,285.450 176.143 C 285.674 175.251,287.271 173.915,289.795 172.507 C 291.743 171.421,301.636 171.777,304.039 173.020 C 304.787 173.408,306.739 174.060,308.376 174.469 C 310.013 174.878,311.662 175.545,312.041 175.952 C 312.420 176.358,313.580 176.940,314.620 177.245 C 315.695 177.561,316.765 178.188,317.101 178.700 C 317.924 179.953,318.411 179.839,320.222 177.971 C 321.090 177.075,322.268 175.857,322.841 175.266 C 323.413 174.674,324.178 173.616,324.541 172.915 C 324.903 172.214,325.435 171.496,325.722 171.320 C 328.084 169.872,328.666 165.719,326.700 164.347 C 325.985 163.848,325.251 163.198,325.070 162.902 C 324.888 162.606,323.724 161.914,322.483 161.365 C 321.242 160.817,319.945 160.112,319.599 159.799 C 319.254 159.487,317.838 158.878,316.452 158.447 C 315.066 158.016,313.633 157.403,313.266 157.085 C 312.899 156.767,310.173 156.126,307.200 155.658 C 304.230 155.191,301.171 154.626,300.403 154.404 C 298.761 153.929,291.844 153.938,290.400 154.417 M70.238 156.504 C 69.510 157.054,69.489 157.507,69.783 166.440 C 70.196 179.044,70.284 179.634,71.800 180.123 C 72.460 180.336,73.710 181.025,74.579 181.655 C 75.447 182.285,76.537 182.800,77.001 182.800 C 77.465 182.800,78.457 183.252,79.206 183.804 C 80.685 184.896,82.755 185.594,84.519 185.598 C 85.211 185.599,86.010 186.001,86.612 186.651 C 87.812 187.946,87.858 187.827,88.188 182.600 C 88.722 174.147,88.603 174.245,98.619 174.075 C 107.044 173.933,114.064 174.686,116.144 175.956 C 116.835 176.378,118.130 176.938,119.022 177.201 C 119.914 177.464,121.352 178.292,122.217 179.040 C 123.083 179.788,123.932 180.400,124.104 180.400 C 124.790 180.400,128.688 184.669,128.943 185.700 C 129.093 186.305,129.466 186.800,129.772 186.800 C 130.078 186.800,130.783 187.340,131.339 188.000 L 132.348 189.200 139.314 189.200 C 148.001 189.200,148.800 188.979,148.800 186.581 C 148.800 185.411,148.593 184.724,148.169 184.486 C 147.819 184.291,147.178 182.746,146.729 181.018 C 146.285 179.305,145.399 177.079,144.760 176.073 C 144.122 175.067,143.600 174.060,143.600 173.836 C 143.600 173.345,143.092 172.781,138.755 168.451 C 136.910 166.608,134.837 164.860,134.148 164.565 C 133.460 164.271,132.380 163.598,131.748 163.070 C 131.117 162.541,130.150 161.984,129.600 161.832 C 128.029 161.395,125.445 160.257,124.947 159.783 C 124.698 159.545,122.628 159.019,120.347 158.613 C 118.066 158.207,115.390 157.511,114.400 157.066 C 111.998 155.985,71.604 155.472,70.238 156.504 " stroke="none" fill="#dbe99d" fill-rule="evenodd"></path><path id="path3" d="M67.563 157.444 C 66.841 158.315,66.499 245.900,67.211 247.624 C 68.201 250.019,68.022 250.000,89.772 250.000 C 108.647 250.000,109.732 249.960,111.910 249.194 C 113.169 248.750,115.820 248.206,117.800 247.984 C 121.986 247.514,122.632 247.344,123.992 246.354 C 124.547 245.951,126.145 245.358,127.545 245.036 C 129.174 244.661,130.295 244.157,130.659 243.637 C 130.973 243.189,131.942 242.610,132.814 242.348 C 133.687 242.087,134.400 241.729,134.400 241.554 C 134.400 241.378,135.207 240.761,136.193 240.183 C 137.179 239.605,138.394 238.652,138.893 238.066 C 139.392 237.480,140.295 236.681,140.900 236.291 C 141.505 235.901,142.000 235.348,142.000 235.063 C 142.000 234.778,142.624 233.844,143.387 232.986 C 144.151 232.128,144.999 230.880,145.272 230.213 C 145.546 229.546,146.163 228.686,146.644 228.303 C 147.149 227.900,147.727 226.738,148.012 225.550 C 148.283 224.420,148.832 223.168,149.231 222.769 C 150.073 221.927,150.634 219.991,151.019 216.600 C 151.169 215.280,151.654 213.603,152.096 212.872 C 153.315 210.858,153.302 196.452,152.079 194.131 C 151.635 193.289,151.043 191.710,150.762 190.622 C 150.001 187.670,149.836 189.161,150.567 192.377 C 151.302 195.606,151.400 201.046,150.752 202.674 C 150.506 203.293,150.154 206.282,149.970 209.315 C 149.574 215.828,149.045 219.012,148.220 219.837 C 147.646 220.411,146.400 223.985,146.400 225.059 C 146.400 225.341,145.898 226.163,145.284 226.886 C 144.670 227.609,143.954 228.695,143.693 229.300 C 143.431 229.905,143.041 230.400,142.825 230.400 C 142.610 230.400,141.982 231.165,141.430 232.100 C 140.245 234.109,136.685 237.625,134.905 238.546 C 134.214 238.903,133.413 239.528,133.124 239.935 C 132.836 240.342,131.655 240.988,130.500 241.370 C 129.345 241.752,128.175 242.386,127.899 242.780 C 127.618 243.182,126.607 243.625,125.599 243.788 C 124.609 243.949,122.489 244.599,120.887 245.233 C 116.634 246.917,112.187 247.199,89.949 247.200 C 74.870 247.200,70.407 247.088,70.094 246.700 C 69.833 246.377,69.587 232.279,69.397 206.800 C 68.995 152.682,69.103 155.589,67.563 157.444 M262.654 171.128 C 262.530 171.497,262.018 172.308,261.515 172.929 C 259.680 175.194,260.027 190.029,261.979 192.771 C 262.401 193.364,262.873 194.378,263.028 195.024 C 263.421 196.671,264.476 198.400,265.086 198.400 C 265.369 198.400,265.600 198.735,265.600 199.145 C 265.600 199.887,269.222 203.600,269.945 203.600 C 270.154 203.600,271.048 204.205,271.933 204.944 C 272.885 205.740,274.189 206.392,275.127 206.542 C 275.999 206.681,276.818 207.069,276.946 207.404 C 277.222 208.123,278.659 208.717,281.372 209.232 C 282.457 209.438,283.627 209.863,283.973 210.175 C 284.953 211.063,286.519 211.539,289.890 211.975 C 291.750 212.215,293.791 212.784,294.968 213.389 C 296.050 213.945,297.400 214.401,297.968 214.402 C 299.442 214.405,302.129 215.180,302.600 215.737 C 302.820 215.998,303.495 216.528,304.100 216.915 C 304.705 217.302,305.200 217.858,305.200 218.150 C 305.200 218.442,305.740 219.246,306.400 219.937 C 308.574 222.212,308.080 223.750,303.707 228.321 L 302.014 230.091 296.476 229.939 C 291.162 229.793,290.886 229.744,289.667 228.718 C 288.906 228.077,287.657 227.538,286.553 227.372 C 285.414 227.201,284.229 226.679,283.454 226.005 C 282.764 225.405,281.480 224.681,280.600 224.396 C 279.720 224.111,278.769 223.550,278.486 223.151 C 278.203 222.751,277.366 222.137,276.625 221.785 C 275.885 221.434,275.200 220.844,275.102 220.473 C 275.005 220.103,274.087 219.382,273.063 218.872 C 272.038 218.362,271.200 217.749,271.200 217.510 C 271.200 217.260,270.903 217.329,270.500 217.672 C 270.115 218.000,269.214 218.500,268.498 218.784 C 267.699 219.100,266.859 219.899,266.324 220.849 C 265.845 221.702,265.261 222.400,265.026 222.401 C 264.792 222.401,264.113 223.172,263.518 224.114 C 262.923 225.056,261.978 226.257,261.418 226.783 C 260.858 227.309,260.400 227.965,260.400 228.241 C 260.400 228.516,259.847 229.175,259.171 229.704 C 257.059 231.357,257.019 235.577,259.106 236.514 C 259.702 236.781,260.706 237.585,261.336 238.300 C 261.967 239.015,262.717 239.600,263.004 239.600 C 263.290 239.600,264.278 240.230,265.200 241.000 C 266.122 241.770,267.137 242.400,267.456 242.400 C 267.775 242.400,268.505 242.869,269.079 243.442 C 269.652 244.016,271.073 244.812,272.236 245.213 C 273.400 245.613,274.857 246.304,275.476 246.749 C 276.094 247.194,277.770 247.762,279.200 248.012 C 280.630 248.262,282.344 248.800,283.008 249.209 C 286.562 251.394,307.900 251.361,310.724 249.165 C 311.233 248.770,312.644 248.240,313.860 247.988 C 315.076 247.735,316.434 247.166,316.876 246.724 C 317.319 246.281,318.435 245.586,319.356 245.178 C 321.667 244.156,328.193 237.170,328.676 235.200 C 328.811 234.650,329.333 233.704,329.837 233.098 C 332.262 230.177,332.067 212.032,329.585 209.786 C 329.153 209.396,328.800 208.816,328.800 208.498 C 328.800 207.476,327.527 205.200,326.954 205.200 C 326.649 205.200,326.400 205.028,326.400 204.817 C 326.400 204.158,321.961 199.996,320.418 199.209 C 319.609 198.796,318.713 198.177,318.427 197.832 C 318.141 197.488,317.163 197.008,316.253 196.766 C 315.344 196.525,313.814 195.810,312.853 195.178 C 311.669 194.399,310.346 193.943,308.740 193.761 C 307.438 193.614,305.974 193.184,305.486 192.805 C 304.129 191.750,302.159 191.291,298.000 191.059 C 294.041 190.838,293.822 191.203,297.436 192.002 C 298.516 192.240,300.300 192.905,301.400 193.478 C 302.500 194.051,304.837 194.771,306.593 195.077 C 308.552 195.419,310.097 195.927,310.593 196.392 C 311.037 196.809,312.300 197.377,313.400 197.653 C 314.500 197.930,315.850 198.550,316.400 199.032 C 317.619 200.101,319.739 201.200,320.580 201.200 C 320.921 201.200,321.200 201.457,321.200 201.771 C 321.200 202.085,321.695 202.712,322.300 203.164 C 322.905 203.616,323.522 204.124,323.671 204.293 C 323.819 204.462,324.586 205.304,325.374 206.165 C 326.162 207.025,326.999 208.465,327.234 209.365 C 327.469 210.264,328.143 211.900,328.731 213.000 C 330.480 216.271,330.575 226.430,328.886 229.600 C 328.241 230.810,327.595 232.452,327.448 233.250 C 327.183 234.699,326.594 235.472,322.607 239.600 C 319.803 242.504,318.084 244.000,317.553 244.000 C 317.315 244.000,316.103 244.621,314.860 245.380 C 313.153 246.422,311.964 246.824,310.000 247.020 C 308.570 247.163,306.680 247.597,305.800 247.983 C 301.732 249.768,293.947 249.773,288.200 247.993 C 286.880 247.584,284.203 247.037,282.252 246.777 C 279.817 246.452,278.473 246.073,277.968 245.568 C 277.563 245.163,276.189 244.530,274.916 244.162 C 273.642 243.793,272.110 243.082,271.510 242.580 C 270.911 242.079,269.784 241.459,269.007 241.202 C 268.230 240.946,267.428 240.425,267.225 240.046 C 267.021 239.666,266.168 239.006,265.328 238.578 C 264.487 238.150,263.350 237.372,262.800 236.848 C 262.250 236.324,261.323 235.728,260.740 235.523 C 258.887 234.871,258.824 232.731,260.603 230.892 C 263.279 228.124,263.883 227.404,264.629 226.100 C 265.038 225.385,265.514 224.800,265.687 224.800 C 265.860 224.800,266.633 223.921,267.404 222.847 C 269.502 219.928,270.782 219.547,272.762 221.252 C 274.384 222.649,276.814 224.417,279.014 225.800 C 279.714 226.240,280.874 226.989,281.591 227.464 C 282.308 227.940,283.540 228.450,284.329 228.598 C 285.118 228.746,286.268 229.291,286.884 229.809 C 289.418 231.942,305.600 232.101,305.600 229.994 C 305.600 229.824,306.167 229.081,306.859 228.342 C 311.469 223.427,308.444 214.589,301.736 213.371 C 300.891 213.218,299.480 212.684,298.600 212.185 C 296.831 211.183,295.950 210.959,291.710 210.435 C 290.050 210.229,288.555 209.812,288.197 209.454 C 287.450 208.707,285.091 208.005,283.319 208.002 C 281.993 208.000,280.000 207.277,280.000 206.799 C 280.000 206.428,277.775 205.380,275.675 204.763 C 274.727 204.484,273.783 203.943,273.579 203.560 C 273.374 203.177,272.575 202.656,271.804 202.401 C 271.033 202.147,270.177 201.634,269.901 201.262 C 269.626 200.890,268.905 200.270,268.300 199.884 C 267.695 199.498,267.200 198.949,267.200 198.666 C 267.200 198.382,266.662 197.634,266.005 197.005 C 265.327 196.355,264.695 195.241,264.544 194.430 C 264.398 193.643,263.834 191.830,263.291 190.400 C 261.999 187.002,261.511 177.823,262.516 175.821 C 263.231 174.397,264.000 172.098,264.000 171.383 C 264.000 170.592,262.903 170.384,262.654 171.128 M290.200 173.592 L 287.801 174.744 288.993 175.197 C 289.765 175.491,290.681 175.528,291.592 175.303 C 293.476 174.838,303.521 175.535,305.422 176.263 C 305.850 176.427,306.803 176.970,307.540 177.470 C 308.277 177.970,309.537 178.499,310.340 178.645 C 311.225 178.807,312.319 179.441,313.119 180.256 C 313.845 180.995,314.762 181.600,315.157 181.600 C 315.552 181.600,316.394 182.045,317.027 182.589 L 318.178 183.579 319.289 182.515 C 319.900 181.929,320.400 181.160,320.400 180.805 C 320.400 180.450,320.625 179.928,320.900 179.644 C 321.175 179.361,320.636 179.522,319.701 180.004 C 317.740 181.015,316.199 180.724,314.406 179.005 C 313.846 178.470,312.614 177.758,311.668 177.424 C 310.721 177.090,309.464 176.478,308.874 176.064 C 308.283 175.650,307.080 175.184,306.200 175.028 C 305.320 174.872,303.160 174.323,301.400 173.807 C 296.134 172.265,293.085 172.206,290.200 173.592 M170.075 175.216 C 169.594 175.664,169.200 176.253,169.200 176.524 C 169.200 176.796,168.668 177.663,168.018 178.452 C 166.777 179.957,165.616 182.773,165.606 184.300 C 165.603 184.795,165.424 185.200,165.209 185.200 C 161.882 185.200,161.664 215.692,164.963 219.599 C 165.242 219.930,165.689 221.220,165.956 222.467 C 166.231 223.748,166.835 225.139,167.346 225.667 C 167.843 226.180,168.565 227.447,168.951 228.481 C 169.351 229.555,169.975 230.465,170.405 230.602 C 170.820 230.733,171.279 231.220,171.426 231.683 C 171.573 232.146,173.023 233.846,174.647 235.459 C 176.271 237.073,177.600 238.553,177.600 238.748 C 177.600 238.943,178.134 239.324,178.787 239.594 C 179.439 239.865,180.080 240.423,180.211 240.835 C 180.342 241.247,181.291 241.957,182.319 242.412 C 183.348 242.867,184.552 243.560,184.995 243.953 C 185.438 244.345,186.655 244.982,187.700 245.366 C 188.745 245.751,189.600 246.212,189.600 246.390 C 189.600 246.863,192.313 247.853,194.472 248.168 C 195.501 248.318,196.778 248.782,197.309 249.200 C 200.074 251.375,222.313 251.385,225.075 249.213 C 225.596 248.802,226.781 248.338,227.706 248.182 C 229.662 247.852,232.470 246.910,232.784 246.479 C 233.186 245.926,235.168 244.800,235.740 244.800 C 236.052 244.800,236.580 244.385,236.912 243.878 C 237.245 243.371,238.268 242.708,239.187 242.404 C 240.106 242.101,241.212 241.403,241.645 240.853 C 242.077 240.302,242.948 239.538,243.580 239.154 C 244.212 238.770,244.844 238.092,244.985 237.648 C 245.126 237.204,245.579 236.733,245.993 236.602 C 246.407 236.471,247.215 235.562,247.790 234.582 C 248.364 233.602,249.006 232.800,249.217 232.800 C 250.071 232.800,247.477 228.228,246.215 227.509 C 245.935 227.350,245.482 226.681,245.209 226.023 C 244.937 225.365,244.389 224.724,243.992 224.598 C 243.596 224.472,242.805 223.758,242.236 223.011 C 241.666 222.265,240.840 221.540,240.400 221.400 C 239.960 221.260,239.600 220.916,239.600 220.635 C 239.600 219.843,238.280 218.836,236.874 218.555 C 236.173 218.415,235.600 218.143,235.600 217.950 C 235.600 217.015,234.238 217.868,231.360 220.608 C 229.622 222.262,227.432 223.990,226.493 224.447 C 225.554 224.904,224.612 225.604,224.399 226.002 C 224.121 226.521,223.190 226.851,221.106 227.170 C 219.508 227.415,217.284 227.881,216.165 228.207 C 213.610 228.951,208.593 228.974,206.542 228.250 C 205.685 227.948,204.044 227.571,202.896 227.413 C 201.698 227.248,200.253 226.717,199.504 226.166 C 198.787 225.638,197.641 224.943,196.959 224.622 C 196.276 224.301,195.411 223.571,195.037 223.001 C 194.664 222.430,193.917 221.763,193.379 221.518 C 192.840 221.272,192.400 220.846,192.400 220.571 C 192.400 220.296,191.875 219.630,191.234 219.090 C 190.592 218.550,189.879 217.426,189.649 216.592 C 189.418 215.758,188.759 214.583,188.183 213.982 C 186.945 212.690,186.230 205.462,186.621 198.200 C 186.930 192.478,187.129 191.586,188.434 190.100 C 189.075 189.370,189.600 188.462,189.600 188.084 C 189.600 187.007,195.398 181.182,196.694 180.957 C 197.302 180.852,198.123 180.333,198.517 179.805 C 199.016 179.137,199.808 178.758,201.111 178.562 C 203.211 178.247,205.416 177.421,205.796 176.806 C 205.934 176.583,206.376 176.400,206.778 176.400 C 207.180 176.400,208.003 176.144,208.607 175.830 C 209.394 175.422,209.990 175.368,210.707 175.641 C 211.257 175.850,212.718 175.995,213.954 175.963 C 216.812 175.890,219.209 176.335,220.087 177.101 C 220.465 177.430,221.963 178.030,223.416 178.433 C 225.171 178.919,226.320 179.499,226.839 180.159 C 227.269 180.706,228.021 181.274,228.510 181.422 C 229.000 181.571,229.890 182.166,230.488 182.746 C 231.087 183.326,231.922 184.095,232.343 184.455 C 232.765 184.815,233.289 185.430,233.508 185.822 C 234.528 187.645,238.657 187.142,239.754 185.061 C 240.877 182.929,242.405 181.025,243.421 180.490 C 243.954 180.209,244.504 179.526,244.643 178.971 C 244.980 177.627,244.585 177.307,243.982 178.434 C 243.716 178.931,242.991 179.764,242.371 180.286 C 241.750 180.808,241.131 181.587,240.994 182.018 C 240.858 182.448,240.511 182.800,240.225 182.800 C 239.938 182.800,239.275 183.429,238.752 184.197 C 238.228 184.966,237.677 185.596,237.526 185.597 C 236.640 185.606,235.113 184.611,233.000 182.648 C 231.680 181.422,230.389 180.414,230.131 180.409 C 229.873 180.404,229.115 179.854,228.447 179.186 C 227.780 178.518,226.399 177.721,225.379 177.414 C 224.359 177.107,223.212 176.573,222.829 176.227 C 220.585 174.195,206.080 174.272,202.259 176.336 C 200.972 177.031,199.577 177.600,199.160 177.600 C 198.743 177.600,197.734 178.230,196.918 179.000 C 196.101 179.770,195.333 180.400,195.210 180.400 C 194.841 180.400,190.800 184.203,190.800 184.550 C 190.800 184.727,190.443 185.171,190.006 185.536 C 189.230 186.185,187.797 188.519,186.604 191.078 C 184.045 196.564,184.172 212.684,186.800 216.000 C 187.236 216.550,187.849 217.571,188.163 218.269 C 188.477 218.967,189.179 219.830,189.725 220.188 C 190.270 220.545,190.808 221.187,190.920 221.615 C 191.032 222.043,191.679 222.710,192.359 223.097 C 193.039 223.483,193.596 223.989,193.597 224.220 C 193.599 224.450,194.315 225.080,195.189 225.620 C 196.063 226.159,196.783 226.744,196.789 226.920 C 196.805 227.395,200.052 228.781,201.174 228.791 C 201.710 228.796,202.520 229.135,202.974 229.545 C 205.436 231.766,217.085 231.807,219.885 229.604 C 220.448 229.162,221.339 228.800,221.867 228.800 C 223.022 228.800,225.644 227.764,226.200 227.087 C 226.420 226.819,227.285 226.251,228.122 225.825 C 228.958 225.399,230.829 223.894,232.279 222.479 L 234.914 219.908 236.457 220.370 C 237.326 220.630,238.000 221.086,238.000 221.412 C 238.000 221.732,238.621 222.399,239.379 222.896 C 240.138 223.393,240.841 224.113,240.941 224.497 C 241.041 224.880,241.679 225.510,242.359 225.897 C 243.039 226.283,243.596 226.805,243.597 227.056 C 243.599 227.307,244.320 228.384,245.200 229.449 C 246.080 230.514,246.800 231.733,246.800 232.158 C 246.800 233.217,239.411 240.323,237.400 241.199 C 236.520 241.583,235.457 242.280,235.038 242.748 C 234.619 243.217,234.036 243.600,233.744 243.600 C 233.451 243.600,232.036 244.224,230.599 244.986 C 229.054 245.805,226.718 246.612,224.881 246.961 C 223.173 247.285,220.971 247.818,219.988 248.145 C 217.029 249.129,210.803 249.749,208.976 249.242 C 208.109 249.001,206.718 248.803,205.884 248.802 C 205.050 248.801,203.250 248.459,201.884 248.042 C 200.518 247.624,197.898 247.006,196.063 246.667 C 194.214 246.326,192.519 245.783,192.263 245.451 C 192.008 245.121,190.738 244.499,189.439 244.067 C 188.141 243.636,186.930 243.019,186.749 242.695 C 186.568 242.372,185.561 241.733,184.510 241.275 C 183.460 240.817,182.090 239.892,181.466 239.221 C 180.842 238.549,180.082 238.000,179.776 238.000 C 179.471 238.000,178.948 237.473,178.615 236.828 C 178.281 236.184,177.686 235.554,177.291 235.429 C 176.896 235.304,176.260 234.672,175.878 234.025 C 175.496 233.378,174.853 232.744,174.448 232.615 C 174.044 232.487,173.395 231.676,173.006 230.813 C 172.617 229.950,171.876 228.848,171.361 228.363 C 170.845 227.879,170.212 226.834,169.954 226.041 C 169.695 225.249,169.067 224.100,168.558 223.488 C 168.049 222.877,167.523 221.707,167.389 220.888 C 166.868 217.694,166.720 217.206,165.994 216.284 C 164.561 214.461,164.335 212.194,164.470 200.971 L 164.600 190.200 165.685 187.992 C 166.281 186.777,166.967 184.860,167.209 183.731 C 167.451 182.603,167.999 181.363,168.426 180.976 C 168.854 180.589,169.390 179.579,169.619 178.731 C 169.847 177.883,170.585 176.562,171.258 175.795 C 172.681 174.174,171.706 173.697,170.075 175.216 M97.200 175.150 C 99.995 175.290,102.585 175.621,103.074 175.900 C 103.554 176.175,104.415 176.400,104.986 176.400 C 105.558 176.400,107.078 176.755,108.366 177.188 C 109.653 177.622,112.032 178.192,113.653 178.455 C 115.986 178.834,116.850 179.175,117.800 180.094 C 118.460 180.733,119.474 181.351,120.054 181.469 C 120.647 181.588,121.301 182.104,121.549 182.647 C 121.790 183.178,122.437 183.816,122.986 184.067 C 123.535 184.317,124.098 184.899,124.237 185.361 C 124.376 185.822,124.898 186.650,125.396 187.200 C 126.623 188.554,127.042 189.483,127.358 191.553 C 127.506 192.516,128.111 194.316,128.704 195.553 C 130.306 198.893,130.330 207.160,128.747 210.200 C 128.175 211.300,127.581 213.054,127.429 214.098 C 127.267 215.207,126.744 216.481,126.170 217.162 C 125.631 217.804,124.927 218.957,124.606 219.725 C 124.282 220.500,123.395 221.509,122.611 221.993 C 121.835 222.473,121.200 223.017,121.200 223.203 C 121.200 223.389,120.210 223.995,119.000 224.549 C 117.790 225.103,116.800 225.717,116.800 225.914 C 116.800 226.546,114.888 227.169,112.107 227.443 C 110.618 227.590,108.914 227.955,108.320 228.255 C 106.156 229.347,92.800 228.997,91.683 227.819 L 90.766 226.851 90.819 208.077 C 90.866 191.621,90.794 189.150,90.237 188.071 C 89.886 187.394,89.577 186.336,89.548 185.720 C 89.520 185.104,89.296 185.950,89.051 187.600 C 88.772 189.481,88.604 197.798,88.603 209.889 L 88.600 229.178 89.511 230.089 C 91.390 231.970,109.264 231.562,112.618 229.562 C 113.289 229.162,114.611 228.712,115.557 228.561 C 116.503 228.409,118.155 227.681,119.229 226.943 C 120.302 226.204,121.352 225.600,121.561 225.600 C 121.771 225.600,122.273 225.179,122.679 224.664 C 123.084 224.148,123.785 223.529,124.236 223.288 C 124.687 223.046,125.386 222.118,125.789 221.224 C 126.192 220.331,126.745 219.600,127.017 219.600 C 127.554 219.600,128.800 216.842,128.800 215.654 C 128.800 215.252,129.149 214.608,129.575 214.222 C 131.703 212.297,131.768 192.789,129.648 192.083 C 129.404 192.001,128.921 190.962,128.575 189.773 C 127.716 186.820,123.296 181.264,120.900 180.126 C 120.185 179.787,119.600 179.354,119.600 179.165 C 119.600 178.722,117.439 177.600,116.586 177.600 C 116.227 177.600,114.553 177.046,112.867 176.370 C 109.811 175.144,109.768 175.139,101.000 175.019 C 95.018 174.938,93.801 174.979,97.200 175.150 M289.600 189.200 C 289.930 189.413,290.560 189.588,291.000 189.588 C 291.662 189.588,291.697 189.521,291.200 189.200 C 290.870 188.987,290.240 188.812,289.800 188.812 C 289.138 188.812,289.103 188.879,289.600 189.200 " stroke="none" fill="#5f731a" fill-rule="evenodd"></path><path id="path4" d="M204.993 152.378 C 203.113 152.552,201.793 152.915,200.993 153.479 C 200.174 154.057,198.676 154.458,196.213 154.757 C 192.986 155.150,192.535 155.309,191.725 156.344 C 191.035 157.226,190.373 157.554,188.885 157.751 C 187.382 157.950,186.754 158.265,186.101 159.148 C 185.638 159.775,184.742 160.392,184.111 160.518 C 183.440 160.652,182.735 161.174,182.414 161.774 C 182.112 162.338,181.593 162.800,181.260 162.800 C 180.384 162.800,171.200 172.332,171.200 173.241 C 171.200 173.658,171.065 174.003,170.900 174.006 C 170.213 174.020,169.594 174.717,168.995 176.150 C 168.645 176.988,168.548 177.556,168.779 177.413 C 169.011 177.270,169.200 176.900,169.200 176.592 C 169.200 175.815,170.798 174.400,171.675 174.400 C 172.074 174.400,172.400 174.256,172.400 174.080 C 172.400 173.106,184.650 161.600,185.688 161.600 C 185.928 161.600,186.709 161.154,187.424 160.609 C 188.139 160.063,189.776 159.231,191.062 158.758 C 192.348 158.286,193.760 157.573,194.201 157.173 C 194.730 156.693,196.425 156.227,199.201 155.797 C 201.510 155.440,204.390 154.952,205.600 154.714 C 211.778 153.496,227.852 155.239,230.400 157.404 C 230.730 157.685,231.978 158.248,233.174 158.657 C 234.369 159.066,235.774 159.790,236.296 160.266 C 236.817 160.743,238.044 161.509,239.022 161.968 C 240.000 162.428,240.800 162.986,240.800 163.209 C 240.800 163.431,241.395 163.896,242.121 164.243 C 242.848 164.590,243.793 165.396,244.221 166.035 C 244.650 166.675,245.180 167.199,245.400 167.200 C 245.620 167.201,246.160 167.747,246.600 168.413 C 247.040 169.079,247.806 169.893,248.301 170.222 C 249.156 170.789,249.173 170.891,248.622 172.210 C 248.098 173.463,248.105 173.600,248.687 173.600 C 249.043 173.600,249.201 173.733,249.038 173.895 C 248.876 174.057,248.459 174.192,248.112 174.195 C 247.765 174.198,247.130 174.875,246.701 175.700 C 246.272 176.525,245.669 177.200,245.361 177.200 C 245.029 177.200,244.800 177.609,244.800 178.200 C 244.800 178.750,244.418 179.538,243.950 179.950 C 241.354 182.241,239.707 184.400,240.555 184.400 C 240.900 184.400,241.492 183.905,241.871 183.300 C 242.478 182.329,243.971 180.663,245.901 178.800 C 246.243 178.470,246.810 177.876,247.161 177.480 C 247.513 177.084,248.265 176.274,248.833 175.680 C 251.200 173.207,251.544 168.413,249.356 168.397 C 249.160 168.396,248.683 167.839,248.297 167.159 C 247.910 166.479,247.277 165.841,246.891 165.740 C 246.505 165.639,245.885 165.026,245.513 164.378 C 245.104 163.665,244.507 163.200,244.000 163.200 C 243.486 163.200,242.900 162.734,242.481 161.994 C 242.035 161.204,241.308 160.653,240.374 160.398 C 239.590 160.184,238.540 159.575,238.041 159.044 C 237.542 158.513,236.339 157.878,235.367 157.633 C 234.395 157.389,233.600 157.015,233.600 156.803 C 233.600 155.953,231.532 155.157,228.389 154.799 C 225.947 154.520,224.841 154.202,224.191 153.591 C 222.724 152.214,213.232 151.614,204.993 152.378 M289.400 152.270 C 286.334 152.529,285.192 152.842,284.466 153.621 C 283.953 154.172,282.855 154.515,280.769 154.777 C 278.420 155.072,277.631 155.348,276.985 156.099 C 276.536 156.622,275.315 157.288,274.272 157.580 C 273.020 157.930,272.099 158.500,271.561 159.255 C 271.112 159.885,270.382 160.400,269.938 160.400 C 269.420 160.400,268.978 160.804,268.705 161.527 C 268.471 162.147,267.773 162.945,267.154 163.300 C 266.535 163.656,265.913 164.408,265.771 164.973 C 265.629 165.538,265.283 166.000,265.003 166.000 C 264.192 166.000,263.200 167.845,263.200 169.353 C 263.200 171.468,264.130 171.391,264.603 169.236 C 264.854 168.093,265.223 167.400,265.580 167.400 C 265.897 167.400,266.518 166.770,266.962 166.000 C 267.405 165.230,267.951 164.526,268.174 164.437 C 268.398 164.347,269.113 163.672,269.764 162.937 C 270.415 162.201,271.131 161.600,271.355 161.600 C 271.579 161.600,272.310 161.082,272.981 160.448 C 273.651 159.815,275.106 159.003,276.214 158.645 C 277.322 158.286,278.497 157.679,278.826 157.296 C 279.229 156.826,281.043 156.300,284.412 155.675 C 287.155 155.166,289.953 154.581,290.628 154.375 C 292.261 153.877,298.645 153.896,300.403 154.404 C 301.171 154.626,304.230 155.191,307.200 155.658 C 310.173 156.126,312.899 156.767,313.266 157.085 C 313.633 157.403,315.066 158.016,316.452 158.447 C 317.838 158.878,319.254 159.487,319.599 159.799 C 319.945 160.112,321.242 160.817,322.483 161.365 C 323.724 161.914,324.888 162.606,325.070 162.902 C 325.251 163.198,325.965 163.834,326.655 164.315 C 329.009 165.957,328.754 168.689,325.945 171.914 C 325.315 172.637,324.800 173.385,324.800 173.576 C 324.800 173.768,324.160 174.690,323.379 175.625 C 321.020 178.448,319.589 181.997,321.033 181.443 C 321.381 181.309,321.737 181.200,321.825 181.200 C 321.912 181.200,322.373 180.435,322.849 179.500 C 323.326 178.565,324.034 177.575,324.424 177.301 C 324.814 177.026,325.443 175.991,325.821 175.001 C 326.199 174.010,326.677 173.200,326.883 173.200 C 327.504 173.200,328.344 172.161,328.624 171.048 C 328.768 170.472,329.047 170.000,329.243 170.000 C 330.181 170.000,331.200 168.323,331.200 166.781 C 331.200 165.256,329.805 163.200,328.770 163.200 C 328.598 163.200,327.789 162.570,326.973 161.800 C 326.156 161.030,325.152 160.400,324.740 160.400 C 324.329 160.400,323.437 159.869,322.758 159.220 C 321.941 158.440,320.794 157.889,319.362 157.592 C 318.173 157.345,317.200 156.997,317.200 156.818 C 317.200 156.010,314.971 155.183,311.835 154.826 C 309.528 154.564,308.059 154.177,307.310 153.634 C 305.489 152.313,296.750 151.648,289.400 152.270 M69.053 155.307 C 68.470 155.737,68.367 156.138,68.584 157.129 C 68.891 158.525,69.600 158.864,69.600 157.614 C 69.600 155.945,70.339 155.894,91.965 156.080 C 111.608 156.249,112.686 156.296,114.400 157.066 C 115.390 157.511,118.066 158.207,120.347 158.613 C 122.628 159.019,124.698 159.545,124.947 159.783 C 125.445 160.257,128.029 161.395,129.600 161.832 C 130.150 161.984,131.117 162.541,131.748 163.070 C 132.380 163.598,133.460 164.271,134.148 164.565 C 135.186 165.010,139.765 169.242,142.863 172.622 C 143.756 173.596,144.810 175.386,146.265 178.400 C 146.849 179.610,147.733 181.410,148.231 182.400 C 148.995 183.922,150.222 188.012,151.109 191.998 C 151.231 192.546,151.661 193.536,152.064 194.198 C 152.614 195.099,152.805 196.251,152.830 198.800 C 152.858 201.690,152.927 202.025,153.288 201.030 C 153.973 199.145,153.069 189.922,152.025 188.153 C 151.571 187.384,151.200 186.323,151.200 185.797 C 151.200 183.870,150.295 180.695,149.527 179.927 C 149.093 179.493,148.484 178.282,148.173 177.235 C 147.862 176.188,147.231 174.990,146.771 174.574 C 146.311 174.157,145.705 173.273,145.425 172.608 C 144.839 171.219,139.694 165.600,139.008 165.600 C 138.756 165.600,138.032 165.060,137.400 164.400 C 136.768 163.740,135.987 163.200,135.666 163.200 C 135.344 163.200,134.494 162.596,133.777 161.858 C 132.845 160.898,131.994 160.451,130.792 160.290 C 129.792 160.156,128.683 159.663,128.055 159.074 C 127.286 158.352,126.191 157.950,124.015 157.591 C 122.104 157.276,120.460 156.722,119.445 156.050 L 117.859 155.000 93.830 154.878 C 73.903 154.777,69.672 154.850,69.053 155.307 M286.601 175.599 C 285.935 176.335,284.648 179.396,284.135 181.465 C 283.996 182.026,284.425 183.191,285.360 184.786 C 286.152 186.137,286.800 187.396,286.800 187.582 C 286.800 187.964,288.974 188.800,289.967 188.800 C 290.323 188.800,291.265 189.242,292.059 189.782 C 293.261 190.598,294.138 190.798,297.252 190.967 C 299.314 191.079,300.550 191.042,300.000 190.885 C 299.450 190.728,298.486 190.252,297.858 189.827 C 297.230 189.401,295.277 188.741,293.519 188.359 C 291.216 187.860,290.153 187.425,289.720 186.807 C 289.390 186.336,288.713 185.795,288.216 185.606 C 286.061 184.787,286.262 176.670,288.449 176.189 C 289.827 175.886,289.938 175.384,288.700 175.052 C 287.422 174.710,287.401 174.715,286.601 175.599 M90.300 175.632 C 89.285 176.223,89.264 186.069,90.274 188.186 C 91.620 191.010,91.987 189.721,91.995 182.143 C 92.001 175.452,91.451 176.002,98.133 175.994 C 101.423 175.990,102.806 175.862,102.400 175.600 C 101.602 175.084,91.193 175.112,90.300 175.632 M208.994 175.634 C 208.389 175.870,208.557 175.950,209.700 175.972 C 210.525 175.987,211.200 175.931,211.200 175.847 C 211.200 175.490,209.725 175.348,208.994 175.634 M192.791 184.083 C 191.036 185.888,189.600 187.682,189.600 188.069 C 189.600 188.456,189.059 189.388,188.399 190.140 C 187.528 191.132,187.142 192.044,186.998 193.454 C 186.835 195.056,186.867 195.197,187.179 194.248 C 187.388 193.614,187.915 192.714,188.351 192.248 C 188.787 191.781,189.360 190.533,189.626 189.474 C 189.925 188.280,190.453 187.321,191.016 186.953 C 191.515 186.626,192.027 185.948,192.152 185.448 C 192.278 184.947,192.838 184.329,193.396 184.074 C 193.955 183.820,194.618 183.159,194.870 182.606 C 195.122 182.053,195.570 181.600,195.864 181.600 C 196.159 181.600,196.400 181.420,196.400 181.200 C 196.400 180.463,195.999 180.784,192.791 184.083 M186.528 202.000 C 186.528 203.430,186.601 204.015,186.689 203.300 C 186.778 202.585,186.778 201.415,186.689 200.700 C 186.601 199.985,186.528 200.570,186.528 202.000 " stroke="none" fill="#5c5c5c" fill-rule="evenodd"></path></g></svg>